solid AutoCAD
   facet normal 0.0000000e+00 -1.0000000e+00 3.9823217e-14
      outer loop
         vertex 9.9901000e-02 2.9101000e-02 6.1501000e-02
         vertex 9.9901000e-02 2.9101000e-02 3.8501000e-02
         vertex 1.0000100e-01 2.9101000e-02 6.1501000e-02
      endloop
   endfacet
   facet normal 0.0000000e+00 -1.0000000e+00 3.9823217e-14
      outer loop
         vertex 1.0000100e-01 2.9101000e-02 6.1501000e-02
         vertex 9.9901000e-02 2.9101000e-02 3.8501000e-02
         vertex 1.0000100e-01 2.9101000e-02 3.8501000e-02
      endloop
   endfacet
   facet normal 0.0000000e+00 -1.0000000e+00 3.9823217e-14
      outer loop
         vertex 1.0100000e-04 2.9101000e-02 3.8501000e-02
         vertex 1.0100000e-04 2.9101000e-02 6.1501000e-02
         vertex 1.0000000e-06 2.9101000e-02 3.8501000e-02
      endloop
   endfacet
   facet normal 0.0000000e+00 -1.0000000e+00 3.9823217e-14
      outer loop
         vertex 1.0000000e-06 2.9101000e-02 3.8501000e-02
         vertex 1.0100000e-04 2.9101000e-02 6.1501000e-02
         vertex 1.0000000e-06 2.9101000e-02 6.1501000e-02
      endloop
   endfacet
   facet normal 0.0000000e+00 0.0000000e+00 -1.0000000e+00
      outer loop
         vertex 9.9901000e-02 1.1101000e-02 6.1501000e-02
         vertex 9.9901000e-02 2.9101000e-02 6.1501000e-02
         vertex 1.0000100e-01 1.1101000e-02 6.1501000e-02
      endloop
   endfacet
   facet normal 0.0000000e+00 0.0000000e+00 -1.0000000e+00
      outer loop
         vertex 1.0000100e-01 1.1101000e-02 6.1501000e-02
         vertex 9.9901000e-02 2.9101000e-02 6.1501000e-02
         vertex 1.0000100e-01 2.9101000e-02 6.1501000e-02
      endloop
   endfacet
   facet normal -0.0000000e+00 0.0000000e+00 1.0000000e+00
      outer loop
         vertex 9.9901000e-02 2.9101000e-02 3.8501000e-02
         vertex 9.9901000e-02 1.1101000e-02 3.8501000e-02
         vertex 1.0000100e-01 2.9101000e-02 3.8501000e-02
      endloop
   endfacet
   facet normal -0.0000000e+00 0.0000000e+00 1.0000000e+00
      outer loop
         vertex 1.0000100e-01 2.9101000e-02 3.8501000e-02
         vertex 9.9901000e-02 1.1101000e-02 3.8501000e-02
         vertex 1.0000100e-01 1.1101000e-02 3.8501000e-02
      endloop
   endfacet
   facet normal 0.0000000e+00 -0.0000000e+00 1.0000000e+00
      outer loop
         vertex 1.0100000e-04 1.1101000e-02 3.8501000e-02
         vertex 1.0100000e-04 2.9101000e-02 3.8501000e-02
         vertex 1.0000000e-06 1.1101000e-02 3.8501000e-02
      endloop
   endfacet
   facet normal 0.0000000e+00 -0.0000000e+00 1.0000000e+00
      outer loop
         vertex 1.0000000e-06 1.1101000e-02 3.8501000e-02
         vertex 1.0100000e-04 2.9101000e-02 3.8501000e-02
         vertex 1.0000000e-06 2.9101000e-02 3.8501000e-02
      endloop
   endfacet
   facet normal -1.7347235e-14 1.0000000e+00 -4.0124908e-14
      outer loop
         vertex 9.9901000e-02 1.1101000e-02 3.8501000e-02
         vertex 9.9901000e-02 1.1101000e-02 6.1501000e-02
         vertex 1.0000100e-01 1.1101000e-02 3.8501000e-02
      endloop
   endfacet
   facet normal -1.7347235e-14 1.0000000e+00 -4.0124908e-14
      outer loop
         vertex 1.0000100e-01 1.1101000e-02 3.8501000e-02
         vertex 9.9901000e-02 1.1101000e-02 6.1501000e-02
         vertex 1.0000100e-01 1.1101000e-02 6.1501000e-02
      endloop
   endfacet
   facet normal 0.0000000e+00 1.0000000e+00 -4.0124908e-14
      outer loop
         vertex 1.0100000e-04 1.1101000e-02 6.1501000e-02
         vertex 1.0100000e-04 1.1101000e-02 3.8501000e-02
         vertex 1.0000000e-06 1.1101000e-02 6.1501000e-02
      endloop
   endfacet
   facet normal 0.0000000e+00 1.0000000e+00 -4.0124908e-14
      outer loop
         vertex 1.0000000e-06 1.1101000e-02 6.1501000e-02
         vertex 1.0100000e-04 1.1101000e-02 3.8501000e-02
         vertex 1.0000000e-06 1.1101000e-02 3.8501000e-02
      endloop
   endfacet
   facet normal -0.0000000e+00 -0.0000000e+00 -1.0000000e+00
      outer loop
         vertex 1.0100000e-04 2.9101000e-02 6.1501000e-02
         vertex 1.0100000e-04 1.1101000e-02 6.1501000e-02
         vertex 1.0000000e-06 2.9101000e-02 6.1501000e-02
      endloop
   endfacet
   facet normal -0.0000000e+00 -0.0000000e+00 -1.0000000e+00
      outer loop
         vertex 1.0000000e-06 2.9101000e-02 6.1501000e-02
         vertex 1.0100000e-04 1.1101000e-02 6.1501000e-02
         vertex 1.0000000e-06 1.1101000e-02 6.1501000e-02
      endloop
   endfacet
   facet normal -0.0000000e+00 0.0000000e+00 -1.0000000e+00
      outer loop
         vertex 9.9901000e-02 1.0000000e-06 9.9901000e-02
         vertex 1.0100000e-04 1.0000000e-06 9.9901000e-02
         vertex 9.9901000e-02 8.0001000e-02 9.9901000e-02
      endloop
   endfacet
   facet normal -0.0000000e+00 0.0000000e+00 -1.0000000e+00
      outer loop
         vertex 9.9901000e-02 8.0001000e-02 9.9901000e-02
         vertex 1.0100000e-04 1.0000000e-06 9.9901000e-02
         vertex 1.0100000e-04 8.0001000e-02 9.9901000e-02
      endloop
   endfacet
   facet normal 1.0000000e+00 0.0000000e+00 4.6259293e-14
      outer loop
         vertex 1.0100000e-04 2.9101000e-02 3.8501000e-02
         vertex 1.0100000e-04 1.1101000e-02 3.8501000e-02
         vertex 1.0100000e-04 1.0000000e-06 1.0100000e-04
      endloop
   endfacet
   facet normal 1.0000000e+00 1.6003215e-13 -6.4212752e-27
      outer loop
         vertex 1.0100000e-04 1.0000000e-06 1.0100000e-04
         vertex 1.0100000e-04 1.1101000e-02 3.8501000e-02
         vertex 1.0100000e-04 1.1101000e-02 6.1501000e-02
      endloop
   endfacet
   facet normal 1.0000000e+00 6.1575496e-14 1.7799167e-14
      outer loop
         vertex 1.0100000e-04 1.0000000e-06 1.0100000e-04
         vertex 1.0100000e-04 1.1101000e-02 6.1501000e-02
         vertex 1.0100000e-04 1.0000000e-06 9.9901000e-02
      endloop
   endfacet
   facet normal 1.0000000e+00 -0.0000000e+00 0.0000000e+00
      outer loop
         vertex 1.0100000e-04 1.0000000e-06 9.9901000e-02
         vertex 1.0100000e-04 1.1101000e-02 6.1501000e-02
         vertex 1.0100000e-04 2.9101000e-02 6.1501000e-02
      endloop
   endfacet
   facet normal 1.0000000e+00 -0.0000000e+00 0.0000000e+00
      outer loop
         vertex 1.0100000e-04 1.0000000e-06 9.9901000e-02
         vertex 1.0100000e-04 2.9101000e-02 6.1501000e-02
         vertex 1.0100000e-04 8.0001000e-02 9.9901000e-02
      endloop
   endfacet
   facet normal 1.0000000e+00 0.0000000e+00 0.0000000e+00
      outer loop
         vertex 1.0100000e-04 8.0001000e-02 9.9901000e-02
         vertex 1.0100000e-04 2.9101000e-02 6.1501000e-02
         vertex 1.0100000e-04 2.9101000e-02 3.8501000e-02
      endloop
   endfacet
   facet normal 1.0000000e+00 -2.1470901e-14 1.7799167e-14
      outer loop
         vertex 1.0100000e-04 8.0001000e-02 9.9901000e-02
         vertex 1.0100000e-04 2.9101000e-02 3.8501000e-02
         vertex 1.0100000e-04 8.0001000e-02 1.0100000e-04
      endloop
   endfacet
   facet normal 1.0000000e+00 0.0000000e+00 4.6259293e-14
      outer loop
         vertex 1.0100000e-04 8.0001000e-02 1.0100000e-04
         vertex 1.0100000e-04 2.9101000e-02 3.8501000e-02
         vertex 1.0100000e-04 1.0000000e-06 1.0100000e-04
      endloop
   endfacet
   facet normal -1.7799167e-14 0.0000000e+00 1.0000000e+00
      outer loop
         vertex 1.0100000e-04 1.0000000e-06 1.0100000e-04
         vertex 9.9901000e-02 1.0000000e-06 1.0100000e-04
         vertex 1.0100000e-04 8.0001000e-02 1.0100000e-04
      endloop
   endfacet
   facet normal -1.7799167e-14 0.0000000e+00 1.0000000e+00
      outer loop
         vertex 1.0100000e-04 8.0001000e-02 1.0100000e-04
         vertex 9.9901000e-02 1.0000000e-06 1.0100000e-04
         vertex 9.9901000e-02 8.0001000e-02 1.0100000e-04
      endloop
   endfacet
   facet normal -1.0000000e+00 0.0000000e+00 0.0000000e+00
      outer loop
         vertex 9.9901000e-02 2.9101000e-02 6.1501000e-02
         vertex 9.9901000e-02 1.1101000e-02 6.1501000e-02
         vertex 9.9901000e-02 1.0000000e-06 9.9901000e-02
      endloop
   endfacet
   facet normal -1.0000000e+00 0.0000000e+00 -0.0000000e+00
      outer loop
         vertex 9.9901000e-02 1.0000000e-06 9.9901000e-02
         vertex 9.9901000e-02 1.1101000e-02 6.1501000e-02
         vertex 9.9901000e-02 1.1101000e-02 3.8501000e-02
      endloop
   endfacet
   facet normal -1.0000000e+00 -9.8456652e-14 -1.7799167e-14
      outer loop
         vertex 9.9901000e-02 1.0000000e-06 9.9901000e-02
         vertex 9.9901000e-02 1.1101000e-02 3.8501000e-02
         vertex 9.9901000e-02 1.0000000e-06 1.0100000e-04
      endloop
   endfacet
   facet normal -1.0000000e+00 0.0000000e+00 -4.6259293e-14
      outer loop
         vertex 9.9901000e-02 1.0000000e-06 1.0100000e-04
         vertex 9.9901000e-02 1.1101000e-02 3.8501000e-02
         vertex 9.9901000e-02 2.9101000e-02 3.8501000e-02
      endloop
   endfacet
   facet normal -1.0000000e+00 0.0000000e+00 -4.6259293e-14
      outer loop
         vertex 9.9901000e-02 1.0000000e-06 1.0100000e-04
         vertex 9.9901000e-02 2.9101000e-02 3.8501000e-02
         vertex 9.9901000e-02 8.0001000e-02 1.0100000e-04
      endloop
   endfacet
   facet normal -1.0000000e+00 3.4898956e-14 -1.3897887e-27
      outer loop
         vertex 9.9901000e-02 8.0001000e-02 1.0100000e-04
         vertex 9.9901000e-02 2.9101000e-02 3.8501000e-02
         vertex 9.9901000e-02 2.9101000e-02 6.1501000e-02
      endloop
   endfacet
   facet normal -1.0000000e+00 1.3428055e-14 -1.7799167e-14
      outer loop
         vertex 9.9901000e-02 8.0001000e-02 1.0100000e-04
         vertex 9.9901000e-02 2.9101000e-02 6.1501000e-02
         vertex 9.9901000e-02 8.0001000e-02 9.9901000e-02
      endloop
   endfacet
   facet normal -1.0000000e+00 -0.0000000e+00 0.0000000e+00
      outer loop
         vertex 9.9901000e-02 8.0001000e-02 9.9901000e-02
         vertex 9.9901000e-02 2.9101000e-02 6.1501000e-02
         vertex 9.9901000e-02 1.0000000e-06 9.9901000e-02
      endloop
   endfacet
   facet normal 4.3107357e-15 -1.0000000e+00 -4.3107357e-15
      outer loop
         vertex 9.9901000e-02 8.0001000e-02 1.0100000e-04
         vertex 9.9901000e-02 8.0001000e-02 9.9901000e-02
         vertex 1.0100000e-04 8.0001000e-02 1.0100000e-04
      endloop
   endfacet
   facet normal 4.4497917e-15 -1.0000000e+00 -4.4497917e-15
      outer loop
         vertex 1.0100000e-04 8.0001000e-02 1.0100000e-04
         vertex 9.9901000e-02 8.0001000e-02 9.9901000e-02
         vertex 1.0100000e-04 8.0001000e-02 9.9901000e-02
      endloop
   endfacet
   facet normal 1.7763568e-14 0.0000000e+00 -1.0000000e+00
      outer loop
         vertex 1.0000100e-01 1.0000000e-06 1.0000000e-06
         vertex 1.0000000e-06 1.0000000e-06 1.0000000e-06
         vertex 1.0000100e-01 8.0101000e-02 1.0000000e-06
      endloop
   endfacet
   facet normal 1.7763568e-14 0.0000000e+00 -1.0000000e+00
      outer loop
         vertex 1.0000100e-01 8.0101000e-02 1.0000000e-06
         vertex 1.0000000e-06 1.0000000e-06 1.0000000e-06
         vertex 1.0000000e-06 8.0101000e-02 1.0000000e-06
      endloop
   endfacet
   facet normal 1.0000000e+00 0.0000000e+00 4.6139139e-14
      outer loop
         vertex 1.0000100e-01 2.9101000e-02 3.8501000e-02
         vertex 1.0000100e-01 1.1101000e-02 3.8501000e-02
         vertex 1.0000100e-01 1.0000000e-06 1.0000000e-06
      endloop
   endfacet
   facet normal 1.0000000e+00 1.6003215e-13 -6.4212752e-27
      outer loop
         vertex 1.0000100e-01 1.0000000e-06 1.0000000e-06
         vertex 1.0000100e-01 1.1101000e-02 3.8501000e-02
         vertex 1.0000100e-01 1.1101000e-02 6.1501000e-02
      endloop
   endfacet
   facet normal 1.0000000e+00 6.1612377e-14 1.7763568e-14
      outer loop
         vertex 1.0000100e-01 1.0000000e-06 1.0000000e-06
         vertex 1.0000100e-01 1.1101000e-02 6.1501000e-02
         vertex 1.0000100e-01 1.0000000e-06 1.0000100e-01
      endloop
   endfacet
   facet normal 1.0000000e+00 -0.0000000e+00 0.0000000e+00
      outer loop
         vertex 1.0000100e-01 1.0000000e-06 1.0000100e-01
         vertex 1.0000100e-01 1.1101000e-02 6.1501000e-02
         vertex 1.0000100e-01 2.9101000e-02 6.1501000e-02
      endloop
   endfacet
   facet normal 1.0000000e+00 -0.0000000e+00 0.0000000e+00
      outer loop
         vertex 1.0000100e-01 1.0000000e-06 1.0000100e-01
         vertex 1.0000100e-01 2.9101000e-02 6.1501000e-02
         vertex 1.0000100e-01 8.0101000e-02 1.0000100e-01
      endloop
   endfacet
   facet normal 1.0000000e+00 0.0000000e+00 0.0000000e+00
      outer loop
         vertex 1.0000100e-01 8.0101000e-02 1.0000100e-01
         vertex 1.0000100e-01 2.9101000e-02 6.1501000e-02
         vertex 1.0000100e-01 2.9101000e-02 3.8501000e-02
      endloop
   endfacet
   facet normal 1.0000000e+00 -2.1420774e-14 1.7763568e-14
      outer loop
         vertex 1.0000100e-01 8.0101000e-02 1.0000100e-01
         vertex 1.0000100e-01 2.9101000e-02 3.8501000e-02
         vertex 1.0000100e-01 8.0101000e-02 1.0000000e-06
      endloop
   endfacet
   facet normal 1.0000000e+00 0.0000000e+00 4.6139139e-14
      outer loop
         vertex 1.0000100e-01 8.0101000e-02 1.0000000e-06
         vertex 1.0000100e-01 2.9101000e-02 3.8501000e-02
         vertex 1.0000100e-01 1.0000000e-06 1.0000000e-06
      endloop
   endfacet
   facet normal -1.7763568e-14 0.0000000e+00 1.0000000e+00
      outer loop
         vertex 1.0000000e-06 1.0000000e-06 1.0000100e-01
         vertex 1.0000100e-01 1.0000000e-06 1.0000100e-01
         vertex 1.0000000e-06 8.0101000e-02 1.0000100e-01
      endloop
   endfacet
   facet normal -1.7763568e-14 0.0000000e+00 1.0000000e+00
      outer loop
         vertex 1.0000000e-06 8.0101000e-02 1.0000100e-01
         vertex 1.0000100e-01 1.0000000e-06 1.0000100e-01
         vertex 1.0000100e-01 8.0101000e-02 1.0000100e-01
      endloop
   endfacet
   facet normal -1.0000000e+00 0.0000000e+00 0.0000000e+00
      outer loop
         vertex 1.0000000e-06 2.9101000e-02 6.1501000e-02
         vertex 1.0000000e-06 1.1101000e-02 6.1501000e-02
         vertex 1.0000000e-06 1.0000000e-06 1.0000100e-01
      endloop
   endfacet
   facet normal -1.0000000e+00 0.0000000e+00 -0.0000000e+00
      outer loop
         vertex 1.0000000e-06 1.0000000e-06 1.0000100e-01
         vertex 1.0000000e-06 1.1101000e-02 6.1501000e-02
         vertex 1.0000000e-06 1.1101000e-02 3.8501000e-02
      endloop
   endfacet
   facet normal -1.0000000e+00 -9.8419771e-14 -1.7763568e-14
      outer loop
         vertex 1.0000000e-06 1.0000000e-06 1.0000100e-01
         vertex 1.0000000e-06 1.1101000e-02 3.8501000e-02
         vertex 1.0000000e-06 1.0000000e-06 1.0000000e-06
      endloop
   endfacet
   facet normal -1.0000000e+00 0.0000000e+00 -4.6139139e-14
      outer loop
         vertex 1.0000000e-06 1.0000000e-06 1.0000000e-06
         vertex 1.0000000e-06 1.1101000e-02 3.8501000e-02
         vertex 1.0000000e-06 2.9101000e-02 3.8501000e-02
      endloop
   endfacet
   facet normal -1.0000000e+00 0.0000000e+00 -4.6139139e-14
      outer loop
         vertex 1.0000000e-06 1.0000000e-06 1.0000000e-06
         vertex 1.0000000e-06 2.9101000e-02 3.8501000e-02
         vertex 1.0000000e-06 8.0101000e-02 1.0000000e-06
      endloop
   endfacet
   facet normal -1.0000000e+00 3.4830526e-14 -1.3870636e-27
      outer loop
         vertex 1.0000000e-06 8.0101000e-02 1.0000000e-06
         vertex 1.0000000e-06 2.9101000e-02 3.8501000e-02
         vertex 1.0000000e-06 2.9101000e-02 6.1501000e-02
      endloop
   endfacet
   facet normal -1.0000000e+00 1.3409753e-14 -1.7763568e-14
      outer loop
         vertex 1.0000000e-06 8.0101000e-02 1.0000000e-06
         vertex 1.0000000e-06 2.9101000e-02 6.1501000e-02
         vertex 1.0000000e-06 8.0101000e-02 1.0000100e-01
      endloop
   endfacet
   facet normal -1.0000000e+00 -0.0000000e+00 0.0000000e+00
      outer loop
         vertex 1.0000000e-06 8.0101000e-02 1.0000100e-01
         vertex 1.0000000e-06 2.9101000e-02 6.1501000e-02
         vertex 1.0000000e-06 1.0000000e-06 1.0000100e-01
      endloop
   endfacet
   facet normal -4.3021142e-15 1.0000000e+00 4.4408921e-15
      outer loop
         vertex 1.0000000e-06 8.0101000e-02 1.0000000e-06
         vertex 1.0000000e-06 8.0101000e-02 1.0000100e-01
         vertex 1.0000100e-01 8.0101000e-02 1.0000000e-06
      endloop
   endfacet
   facet normal -4.4408921e-15 1.0000000e+00 4.3021142e-15
      outer loop
         vertex 1.0000100e-01 8.0101000e-02 1.0000000e-06
         vertex 1.0000000e-06 8.0101000e-02 1.0000100e-01
         vertex 1.0000100e-01 8.0101000e-02 1.0000100e-01
      endloop
   endfacet
   facet normal 4.3715027e-15 -1.0000000e+00 -4.3719949e-15
      outer loop
         vertex 9.9901000e-02 1.0000000e-06 9.9901000e-02
         vertex 1.0000000e-06 1.0000000e-06 1.0000100e-01
         vertex 1.0100000e-04 1.0000000e-06 9.9901000e-02
      endloop
   endfacet
   facet normal 4.3719944e-15 -1.0000000e+00 -4.3715032e-15
      outer loop
         vertex 1.0100000e-04 1.0000000e-06 9.9901000e-02
         vertex 1.0000000e-06 1.0000000e-06 1.0000100e-01
         vertex 1.0000000e-06 1.0000000e-06 1.0000000e-06
      endloop
   endfacet
   facet normal 4.3715027e-15 -1.0000000e+00 -4.3715027e-15
      outer loop
         vertex 1.0100000e-04 1.0000000e-06 9.9901000e-02
         vertex 1.0000000e-06 1.0000000e-06 1.0000000e-06
         vertex 1.0100000e-04 1.0000000e-06 1.0100000e-04
      endloop
   endfacet
   facet normal 4.3715048e-15 -1.0000000e+00 -4.3715048e-15
      outer loop
         vertex 1.0100000e-04 1.0000000e-06 1.0100000e-04
         vertex 1.0000000e-06 1.0000000e-06 1.0000000e-06
         vertex 9.9901000e-02 1.0000000e-06 1.0100000e-04
      endloop
   endfacet
   facet normal 4.3715032e-15 -1.0000000e+00 -4.3698769e-15
      outer loop
         vertex 9.9901000e-02 1.0000000e-06 1.0100000e-04
         vertex 1.0000000e-06 1.0000000e-06 1.0000000e-06
         vertex 1.0000100e-01 1.0000000e-06 1.0000000e-06
      endloop
   endfacet
   facet normal 4.3698769e-15 -1.0000000e+00 -4.3715032e-15
      outer loop
         vertex 9.9901000e-02 1.0000000e-06 1.0100000e-04
         vertex 1.0000100e-01 1.0000000e-06 1.0000000e-06
         vertex 1.0000100e-01 1.0000000e-06 1.0000100e-01
      endloop
   endfacet
   facet normal 4.3715032e-15 -1.0000000e+00 -4.3715032e-15
      outer loop
         vertex 1.0000000e-06 1.0000000e-06 1.0000100e-01
         vertex 9.9901000e-02 1.0000000e-06 9.9901000e-02
         vertex 1.0000100e-01 1.0000000e-06 1.0000100e-01
      endloop
   endfacet
   facet normal 4.3715048e-15 -1.0000000e+00 -4.3715048e-15
      outer loop
         vertex 1.0000100e-01 1.0000000e-06 1.0000100e-01
         vertex 9.9901000e-02 1.0000000e-06 9.9901000e-02
         vertex 9.9901000e-02 1.0000000e-06 1.0100000e-04
      endloop
   endfacet
endsolid AutoCAD
