solid AutoCAD
   facet normal 0.0000000e+00 -1.0000000e+00 3.9823217e-14
      outer loop
         vertex 9.9901000e-02 4.9101000e-02 9.6001000e-02
         vertex 9.9901000e-02 4.9101000e-02 4.0010000e-03
         vertex 1.0000100e-01 4.9101000e-02 9.6001000e-02
      endloop
   endfacet
   facet normal 0.0000000e+00 -1.0000000e+00 3.9823217e-14
      outer loop
         vertex 1.0000100e-01 4.9101000e-02 9.6001000e-02
         vertex 9.9901000e-02 4.9101000e-02 4.0010000e-03
         vertex 1.0000100e-01 4.9101000e-02 4.0010000e-03
      endloop
   endfacet
   facet normal 0.0000000e+00 -1.0000000e+00 3.9823217e-14
      outer loop
         vertex 1.0100000e-04 4.9101000e-02 4.0010000e-03
         vertex 1.0100000e-04 4.9101000e-02 9.6001000e-02
         vertex 1.0000000e-06 4.9101000e-02 4.0010000e-03
      endloop
   endfacet
   facet normal 0.0000000e+00 -1.0000000e+00 3.9823217e-14
      outer loop
         vertex 1.0000000e-06 4.9101000e-02 4.0010000e-03
         vertex 1.0100000e-04 4.9101000e-02 9.6001000e-02
         vertex 1.0000000e-06 4.9101000e-02 9.6001000e-02
      endloop
   endfacet
   facet normal 0.0000000e+00 0.0000000e+00 -1.0000000e+00
      outer loop
         vertex 9.9901000e-02 3.1101000e-02 9.6001000e-02
         vertex 9.9901000e-02 4.9101000e-02 9.6001000e-02
         vertex 1.0000100e-01 3.1101000e-02 9.6001000e-02
      endloop
   endfacet
   facet normal 0.0000000e+00 0.0000000e+00 -1.0000000e+00
      outer loop
         vertex 1.0000100e-01 3.1101000e-02 9.6001000e-02
         vertex 9.9901000e-02 4.9101000e-02 9.6001000e-02
         vertex 1.0000100e-01 4.9101000e-02 9.6001000e-02
      endloop
   endfacet
   facet normal -0.0000000e+00 0.0000000e+00 1.0000000e+00
      outer loop
         vertex 9.9901000e-02 4.9101000e-02 4.0010000e-03
         vertex 9.9901000e-02 3.1101000e-02 4.0010000e-03
         vertex 1.0000100e-01 4.9101000e-02 4.0010000e-03
      endloop
   endfacet
   facet normal -0.0000000e+00 0.0000000e+00 1.0000000e+00
      outer loop
         vertex 1.0000100e-01 4.9101000e-02 4.0010000e-03
         vertex 9.9901000e-02 3.1101000e-02 4.0010000e-03
         vertex 1.0000100e-01 3.1101000e-02 4.0010000e-03
      endloop
   endfacet
   facet normal 0.0000000e+00 -0.0000000e+00 1.0000000e+00
      outer loop
         vertex 1.0100000e-04 3.1101000e-02 4.0010000e-03
         vertex 1.0100000e-04 4.9101000e-02 4.0010000e-03
         vertex 1.0000000e-06 3.1101000e-02 4.0010000e-03
      endloop
   endfacet
   facet normal 0.0000000e+00 -0.0000000e+00 1.0000000e+00
      outer loop
         vertex 1.0000000e-06 3.1101000e-02 4.0010000e-03
         vertex 1.0100000e-04 4.9101000e-02 4.0010000e-03
         vertex 1.0000000e-06 4.9101000e-02 4.0010000e-03
      endloop
   endfacet
   facet normal 0.0000000e+00 1.0000000e+00 -4.0087197e-14
      outer loop
         vertex 9.9901000e-02 3.1101000e-02 4.0010000e-03
         vertex 9.9901000e-02 3.1101000e-02 9.6001000e-02
         vertex 1.0000100e-01 3.1101000e-02 4.0010000e-03
      endloop
   endfacet
   facet normal 0.0000000e+00 1.0000000e+00 -4.0087197e-14
      outer loop
         vertex 1.0000100e-01 3.1101000e-02 4.0010000e-03
         vertex 9.9901000e-02 3.1101000e-02 9.6001000e-02
         vertex 1.0000100e-01 3.1101000e-02 9.6001000e-02
      endloop
   endfacet
   facet normal 0.0000000e+00 1.0000000e+00 -4.0087197e-14
      outer loop
         vertex 1.0100000e-04 3.1101000e-02 9.6001000e-02
         vertex 1.0100000e-04 3.1101000e-02 4.0010000e-03
         vertex 1.0000000e-06 3.1101000e-02 9.6001000e-02
      endloop
   endfacet
   facet normal 0.0000000e+00 1.0000000e+00 -4.0087197e-14
      outer loop
         vertex 1.0000000e-06 3.1101000e-02 9.6001000e-02
         vertex 1.0100000e-04 3.1101000e-02 4.0010000e-03
         vertex 1.0000000e-06 3.1101000e-02 4.0010000e-03
      endloop
   endfacet
   facet normal -0.0000000e+00 -0.0000000e+00 -1.0000000e+00
      outer loop
         vertex 1.0100000e-04 4.9101000e-02 9.6001000e-02
         vertex 1.0100000e-04 3.1101000e-02 9.6001000e-02
         vertex 1.0000000e-06 4.9101000e-02 9.6001000e-02
      endloop
   endfacet
   facet normal -0.0000000e+00 -0.0000000e+00 -1.0000000e+00
      outer loop
         vertex 1.0000000e-06 4.9101000e-02 9.6001000e-02
         vertex 1.0100000e-04 3.1101000e-02 9.6001000e-02
         vertex 1.0000000e-06 3.1101000e-02 9.6001000e-02
      endloop
   endfacet
   facet normal -0.0000000e+00 0.0000000e+00 -1.0000000e+00
      outer loop
         vertex 9.9901000e-02 1.0000000e-06 9.9901000e-02
         vertex 1.0100000e-04 1.0000000e-06 9.9901000e-02
         vertex 9.9901000e-02 8.0001000e-02 9.9901000e-02
      endloop
   endfacet
   facet normal -0.0000000e+00 0.0000000e+00 -1.0000000e+00
      outer loop
         vertex 9.9901000e-02 8.0001000e-02 9.9901000e-02
         vertex 1.0100000e-04 1.0000000e-06 9.9901000e-02
         vertex 1.0100000e-04 8.0001000e-02 9.9901000e-02
      endloop
   endfacet
   facet normal 1.0000000e+00 -2.4212889e-15 1.9308227e-14
      outer loop
         vertex 1.0100000e-04 3.1101000e-02 9.6001000e-02
         vertex 1.0100000e-04 1.0000000e-06 1.0100000e-04
         vertex 1.0100000e-04 3.1101000e-02 4.0010000e-03
      endloop
   endfacet
   facet normal 1.0000000e+00 -0.0000000e+00 0.0000000e+00
      outer loop
         vertex 1.0100000e-04 3.1101000e-02 4.0010000e-03
         vertex 1.0100000e-04 1.0000000e-06 1.0100000e-04
         vertex 1.0100000e-04 8.0001000e-02 1.0100000e-04
      endloop
   endfacet
   facet normal 1.0000000e+00 -0.0000000e+00 -0.0000000e+00
      outer loop
         vertex 1.0100000e-04 3.1101000e-02 4.0010000e-03
         vertex 1.0100000e-04 8.0001000e-02 1.0100000e-04
         vertex 1.0100000e-04 4.9101000e-02 4.0010000e-03
      endloop
   endfacet
   facet normal 1.0000000e+00 2.2464968e-15 1.7799167e-14
      outer loop
         vertex 1.0100000e-04 4.9101000e-02 4.0010000e-03
         vertex 1.0100000e-04 8.0001000e-02 1.0100000e-04
         vertex 1.0100000e-04 8.0001000e-02 9.9901000e-02
      endloop
   endfacet
   facet normal 1.0000000e+00 -2.4369606e-15 1.9308227e-14
      outer loop
         vertex 1.0100000e-04 4.9101000e-02 4.0010000e-03
         vertex 1.0100000e-04 8.0001000e-02 9.9901000e-02
         vertex 1.0100000e-04 4.9101000e-02 9.6001000e-02
      endloop
   endfacet
   facet normal 1.0000000e+00 0.0000000e+00 -0.0000000e+00
      outer loop
         vertex 1.0100000e-04 4.9101000e-02 9.6001000e-02
         vertex 1.0100000e-04 8.0001000e-02 9.9901000e-02
         vertex 1.0100000e-04 3.1101000e-02 9.6001000e-02
      endloop
   endfacet
   facet normal 1.0000000e+00 0.0000000e+00 -0.0000000e+00
      outer loop
         vertex 1.0100000e-04 3.1101000e-02 9.6001000e-02
         vertex 1.0100000e-04 8.0001000e-02 9.9901000e-02
         vertex 1.0100000e-04 1.0000000e-06 9.9901000e-02
      endloop
   endfacet
   facet normal 1.0000000e+00 2.2320498e-15 1.7799167e-14
      outer loop
         vertex 1.0100000e-04 3.1101000e-02 9.6001000e-02
         vertex 1.0100000e-04 1.0000000e-06 9.9901000e-02
         vertex 1.0100000e-04 1.0000000e-06 1.0100000e-04
      endloop
   endfacet
   facet normal -1.7799167e-14 0.0000000e+00 1.0000000e+00
      outer loop
         vertex 1.0100000e-04 1.0000000e-06 1.0100000e-04
         vertex 9.9901000e-02 1.0000000e-06 1.0100000e-04
         vertex 1.0100000e-04 8.0001000e-02 1.0100000e-04
      endloop
   endfacet
   facet normal -1.7799167e-14 0.0000000e+00 1.0000000e+00
      outer loop
         vertex 1.0100000e-04 8.0001000e-02 1.0100000e-04
         vertex 9.9901000e-02 1.0000000e-06 1.0100000e-04
         vertex 9.9901000e-02 8.0001000e-02 1.0100000e-04
      endloop
   endfacet
   facet normal -1.0000000e+00 -2.4212889e-15 -1.9308227e-14
      outer loop
         vertex 9.9901000e-02 3.1101000e-02 4.0010000e-03
         vertex 9.9901000e-02 1.0000000e-06 9.9901000e-02
         vertex 9.9901000e-02 3.1101000e-02 9.6001000e-02
      endloop
   endfacet
   facet normal -1.0000000e+00 0.0000000e+00 0.0000000e+00
      outer loop
         vertex 9.9901000e-02 3.1101000e-02 9.6001000e-02
         vertex 9.9901000e-02 1.0000000e-06 9.9901000e-02
         vertex 9.9901000e-02 8.0001000e-02 9.9901000e-02
      endloop
   endfacet
   facet normal -1.0000000e+00 0.0000000e+00 -0.0000000e+00
      outer loop
         vertex 9.9901000e-02 3.1101000e-02 9.6001000e-02
         vertex 9.9901000e-02 8.0001000e-02 9.9901000e-02
         vertex 9.9901000e-02 4.9101000e-02 9.6001000e-02
      endloop
   endfacet
   facet normal -1.0000000e+00 2.2464968e-15 -1.7799167e-14
      outer loop
         vertex 9.9901000e-02 4.9101000e-02 9.6001000e-02
         vertex 9.9901000e-02 8.0001000e-02 9.9901000e-02
         vertex 9.9901000e-02 8.0001000e-02 1.0100000e-04
      endloop
   endfacet
   facet normal -1.0000000e+00 -2.4369606e-15 -1.9308227e-14
      outer loop
         vertex 9.9901000e-02 4.9101000e-02 9.6001000e-02
         vertex 9.9901000e-02 8.0001000e-02 1.0100000e-04
         vertex 9.9901000e-02 4.9101000e-02 4.0010000e-03
      endloop
   endfacet
   facet normal -1.0000000e+00 -0.0000000e+00 -0.0000000e+00
      outer loop
         vertex 9.9901000e-02 4.9101000e-02 4.0010000e-03
         vertex 9.9901000e-02 8.0001000e-02 1.0100000e-04
         vertex 9.9901000e-02 3.1101000e-02 4.0010000e-03
      endloop
   endfacet
   facet normal -1.0000000e+00 -0.0000000e+00 -0.0000000e+00
      outer loop
         vertex 9.9901000e-02 3.1101000e-02 4.0010000e-03
         vertex 9.9901000e-02 8.0001000e-02 1.0100000e-04
         vertex 9.9901000e-02 1.0000000e-06 1.0100000e-04
      endloop
   endfacet
   facet normal -1.0000000e+00 2.2320498e-15 -1.7799167e-14
      outer loop
         vertex 9.9901000e-02 3.1101000e-02 4.0010000e-03
         vertex 9.9901000e-02 1.0000000e-06 1.0100000e-04
         vertex 9.9901000e-02 1.0000000e-06 9.9901000e-02
      endloop
   endfacet
   facet normal 4.3107357e-15 -1.0000000e+00 -4.3107357e-15
      outer loop
         vertex 9.9901000e-02 8.0001000e-02 1.0100000e-04
         vertex 9.9901000e-02 8.0001000e-02 9.9901000e-02
         vertex 1.0100000e-04 8.0001000e-02 1.0100000e-04
      endloop
   endfacet
   facet normal 4.4497917e-15 -1.0000000e+00 -4.4497917e-15
      outer loop
         vertex 1.0100000e-04 8.0001000e-02 1.0100000e-04
         vertex 9.9901000e-02 8.0001000e-02 9.9901000e-02
         vertex 1.0100000e-04 8.0001000e-02 9.9901000e-02
      endloop
   endfacet
   facet normal 1.7763568e-14 0.0000000e+00 -1.0000000e+00
      outer loop
         vertex 1.0000100e-01 1.0000000e-06 1.0000000e-06
         vertex 1.0000000e-06 1.0000000e-06 1.0000000e-06
         vertex 1.0000100e-01 8.0101000e-02 1.0000000e-06
      endloop
   endfacet
   facet normal 1.7763568e-14 0.0000000e+00 -1.0000000e+00
      outer loop
         vertex 1.0000100e-01 8.0101000e-02 1.0000000e-06
         vertex 1.0000000e-06 1.0000000e-06 1.0000000e-06
         vertex 1.0000000e-06 8.0101000e-02 1.0000000e-06
      endloop
   endfacet
   facet normal 1.0000000e+00 -2.4833732e-15 1.9308227e-14
      outer loop
         vertex 1.0000100e-01 3.1101000e-02 9.6001000e-02
         vertex 1.0000100e-01 1.0000000e-06 1.0000000e-06
         vertex 1.0000100e-01 3.1101000e-02 4.0010000e-03
      endloop
   endfacet
   facet normal 1.0000000e+00 -0.0000000e+00 0.0000000e+00
      outer loop
         vertex 1.0000100e-01 3.1101000e-02 4.0010000e-03
         vertex 1.0000100e-01 1.0000000e-06 1.0000000e-06
         vertex 1.0000100e-01 8.0101000e-02 1.0000000e-06
      endloop
   endfacet
   facet normal 1.0000000e+00 -0.0000000e+00 -0.0000000e+00
      outer loop
         vertex 1.0000100e-01 3.1101000e-02 4.0010000e-03
         vertex 1.0000100e-01 8.0101000e-02 1.0000000e-06
         vertex 1.0000100e-01 4.9101000e-02 4.0010000e-03
      endloop
   endfacet
   facet normal 1.0000000e+00 2.2920733e-15 1.7763568e-14
      outer loop
         vertex 1.0000100e-01 4.9101000e-02 4.0010000e-03
         vertex 1.0000100e-01 8.0101000e-02 1.0000000e-06
         vertex 1.0000100e-01 8.0101000e-02 1.0000100e-01
      endloop
   endfacet
   facet normal 1.0000000e+00 -2.4913841e-15 1.9308227e-14
      outer loop
         vertex 1.0000100e-01 4.9101000e-02 4.0010000e-03
         vertex 1.0000100e-01 8.0101000e-02 1.0000100e-01
         vertex 1.0000100e-01 4.9101000e-02 9.6001000e-02
      endloop
   endfacet
   facet normal 1.0000000e+00 0.0000000e+00 -0.0000000e+00
      outer loop
         vertex 1.0000100e-01 4.9101000e-02 9.6001000e-02
         vertex 1.0000100e-01 8.0101000e-02 1.0000100e-01
         vertex 1.0000100e-01 3.1101000e-02 9.6001000e-02
      endloop
   endfacet
   facet normal 1.0000000e+00 0.0000000e+00 -0.0000000e+00
      outer loop
         vertex 1.0000100e-01 3.1101000e-02 9.6001000e-02
         vertex 1.0000100e-01 8.0101000e-02 1.0000100e-01
         vertex 1.0000100e-01 1.0000000e-06 1.0000100e-01
      endloop
   endfacet
   facet normal 1.0000000e+00 2.2847033e-15 1.7763568e-14
      outer loop
         vertex 1.0000100e-01 3.1101000e-02 9.6001000e-02
         vertex 1.0000100e-01 1.0000000e-06 1.0000100e-01
         vertex 1.0000100e-01 1.0000000e-06 1.0000000e-06
      endloop
   endfacet
   facet normal -1.7763568e-14 0.0000000e+00 1.0000000e+00
      outer loop
         vertex 1.0000000e-06 1.0000000e-06 1.0000100e-01
         vertex 1.0000100e-01 1.0000000e-06 1.0000100e-01
         vertex 1.0000000e-06 8.0101000e-02 1.0000100e-01
      endloop
   endfacet
   facet normal -1.7763568e-14 0.0000000e+00 1.0000000e+00
      outer loop
         vertex 1.0000000e-06 8.0101000e-02 1.0000100e-01
         vertex 1.0000100e-01 1.0000000e-06 1.0000100e-01
         vertex 1.0000100e-01 8.0101000e-02 1.0000100e-01
      endloop
   endfacet
   facet normal -1.0000000e+00 -2.4833732e-15 -1.9308227e-14
      outer loop
         vertex 1.0000000e-06 3.1101000e-02 4.0010000e-03
         vertex 1.0000000e-06 1.0000000e-06 1.0000100e-01
         vertex 1.0000000e-06 3.1101000e-02 9.6001000e-02
      endloop
   endfacet
   facet normal -1.0000000e+00 0.0000000e+00 0.0000000e+00
      outer loop
         vertex 1.0000000e-06 3.1101000e-02 9.6001000e-02
         vertex 1.0000000e-06 1.0000000e-06 1.0000100e-01
         vertex 1.0000000e-06 8.0101000e-02 1.0000100e-01
      endloop
   endfacet
   facet normal -1.0000000e+00 0.0000000e+00 -0.0000000e+00
      outer loop
         vertex 1.0000000e-06 3.1101000e-02 9.6001000e-02
         vertex 1.0000000e-06 8.0101000e-02 1.0000100e-01
         vertex 1.0000000e-06 4.9101000e-02 9.6001000e-02
      endloop
   endfacet
   facet normal -1.0000000e+00 2.2920733e-15 -1.7763568e-14
      outer loop
         vertex 1.0000000e-06 4.9101000e-02 9.6001000e-02
         vertex 1.0000000e-06 8.0101000e-02 1.0000100e-01
         vertex 1.0000000e-06 8.0101000e-02 1.0000000e-06
      endloop
   endfacet
   facet normal -1.0000000e+00 -2.4913841e-15 -1.9308227e-14
      outer loop
         vertex 1.0000000e-06 4.9101000e-02 9.6001000e-02
         vertex 1.0000000e-06 8.0101000e-02 1.0000000e-06
         vertex 1.0000000e-06 4.9101000e-02 4.0010000e-03
      endloop
   endfacet
   facet normal -1.0000000e+00 -0.0000000e+00 -0.0000000e+00
      outer loop
         vertex 1.0000000e-06 4.9101000e-02 4.0010000e-03
         vertex 1.0000000e-06 8.0101000e-02 1.0000000e-06
         vertex 1.0000000e-06 3.1101000e-02 4.0010000e-03
      endloop
   endfacet
   facet normal -1.0000000e+00 -0.0000000e+00 -0.0000000e+00
      outer loop
         vertex 1.0000000e-06 3.1101000e-02 4.0010000e-03
         vertex 1.0000000e-06 8.0101000e-02 1.0000000e-06
         vertex 1.0000000e-06 1.0000000e-06 1.0000000e-06
      endloop
   endfacet
   facet normal -1.0000000e+00 2.2847033e-15 -1.7763568e-14
      outer loop
         vertex 1.0000000e-06 3.1101000e-02 4.0010000e-03
         vertex 1.0000000e-06 1.0000000e-06 1.0000000e-06
         vertex 1.0000000e-06 1.0000000e-06 1.0000100e-01
      endloop
   endfacet
   facet normal -4.3021142e-15 1.0000000e+00 4.4408921e-15
      outer loop
         vertex 1.0000000e-06 8.0101000e-02 1.0000000e-06
         vertex 1.0000000e-06 8.0101000e-02 1.0000100e-01
         vertex 1.0000100e-01 8.0101000e-02 1.0000000e-06
      endloop
   endfacet
   facet normal -4.4408921e-15 1.0000000e+00 4.3021142e-15
      outer loop
         vertex 1.0000100e-01 8.0101000e-02 1.0000000e-06
         vertex 1.0000000e-06 8.0101000e-02 1.0000100e-01
         vertex 1.0000100e-01 8.0101000e-02 1.0000100e-01
      endloop
   endfacet
   facet normal 4.3715027e-15 -1.0000000e+00 -4.3719949e-15
      outer loop
         vertex 9.9901000e-02 1.0000000e-06 9.9901000e-02
         vertex 1.0000000e-06 1.0000000e-06 1.0000100e-01
         vertex 1.0100000e-04 1.0000000e-06 9.9901000e-02
      endloop
   endfacet
   facet normal 4.3719944e-15 -1.0000000e+00 -4.3715032e-15
      outer loop
         vertex 1.0100000e-04 1.0000000e-06 9.9901000e-02
         vertex 1.0000000e-06 1.0000000e-06 1.0000100e-01
         vertex 1.0000000e-06 1.0000000e-06 1.0000000e-06
      endloop
   endfacet
   facet normal 4.3715027e-15 -1.0000000e+00 -4.3715027e-15
      outer loop
         vertex 1.0100000e-04 1.0000000e-06 9.9901000e-02
         vertex 1.0000000e-06 1.0000000e-06 1.0000000e-06
         vertex 1.0100000e-04 1.0000000e-06 1.0100000e-04
      endloop
   endfacet
   facet normal 4.3715048e-15 -1.0000000e+00 -4.3715048e-15
      outer loop
         vertex 1.0100000e-04 1.0000000e-06 1.0100000e-04
         vertex 1.0000000e-06 1.0000000e-06 1.0000000e-06
         vertex 9.9901000e-02 1.0000000e-06 1.0100000e-04
      endloop
   endfacet
   facet normal 4.3715032e-15 -1.0000000e+00 -4.3698769e-15
      outer loop
         vertex 9.9901000e-02 1.0000000e-06 1.0100000e-04
         vertex 1.0000000e-06 1.0000000e-06 1.0000000e-06
         vertex 1.0000100e-01 1.0000000e-06 1.0000000e-06
      endloop
   endfacet
   facet normal 4.3698769e-15 -1.0000000e+00 -4.3715032e-15
      outer loop
         vertex 9.9901000e-02 1.0000000e-06 1.0100000e-04
         vertex 1.0000100e-01 1.0000000e-06 1.0000000e-06
         vertex 1.0000100e-01 1.0000000e-06 1.0000100e-01
      endloop
   endfacet
   facet normal 4.3715032e-15 -1.0000000e+00 -4.3715032e-15
      outer loop
         vertex 1.0000000e-06 1.0000000e-06 1.0000100e-01
         vertex 9.9901000e-02 1.0000000e-06 9.9901000e-02
         vertex 1.0000100e-01 1.0000000e-06 1.0000100e-01
      endloop
   endfacet
   facet normal 4.3715048e-15 -1.0000000e+00 -4.3715048e-15
      outer loop
         vertex 1.0000100e-01 1.0000000e-06 1.0000100e-01
         vertex 9.9901000e-02 1.0000000e-06 9.9901000e-02
         vertex 9.9901000e-02 1.0000000e-06 1.0100000e-04
      endloop
   endfacet
endsolid AutoCAD
