solid AutoCAD
   facet normal -0.0000000e+00 -1.0000000e+00 0.0000000e+00
      outer loop
         vertex 1.0100000e-04 4.9100000e-02 2.7001000e-02
         vertex 1.0100000e-04 4.9100000e-02 7.3001000e-02
         vertex 1.0000000e-06 4.9100000e-02 2.7001000e-02
      endloop
   endfacet
   facet normal 0.0000000e+00 -1.0000000e+00 0.0000000e+00
      outer loop
         vertex 1.0000000e-06 4.9100000e-02 2.7001000e-02
         vertex 1.0100000e-04 4.9100000e-02 7.3001000e-02
         vertex 1.0000000e-06 4.9100000e-02 7.3001000e-02
      endloop
   endfacet
   facet normal 0.0000000e+00 -1.0000000e+00 0.0000000e+00
      outer loop
         vertex 9.9901000e-02 4.9100000e-02 7.3001000e-02
         vertex 9.9901000e-02 4.9100000e-02 2.7001000e-02
         vertex 1.0000100e-01 4.9100000e-02 7.3001000e-02
      endloop
   endfacet
   facet normal 0.0000000e+00 -1.0000000e+00 -0.0000000e+00
      outer loop
         vertex 1.0000100e-01 4.9100000e-02 7.3001000e-02
         vertex 9.9901000e-02 4.9100000e-02 2.7001000e-02
         vertex 1.0000100e-01 4.9100000e-02 2.7001000e-02
      endloop
   endfacet
   facet normal 0.0000000e+00 9.8686491e-14 -1.0000000e+00
      outer loop
         vertex 1.0100000e-04 4.9100000e-02 7.3001000e-02
         vertex 1.0100000e-04 3.1100000e-02 7.3001000e-02
         vertex 1.0000000e-06 4.9100000e-02 7.3001000e-02
      endloop
   endfacet
   facet normal 0.0000000e+00 9.8686491e-14 -1.0000000e+00
      outer loop
         vertex 1.0000000e-06 4.9100000e-02 7.3001000e-02
         vertex 1.0100000e-04 3.1100000e-02 7.3001000e-02
         vertex 1.0000000e-06 3.1100000e-02 7.3001000e-02
      endloop
   endfacet
   facet normal 0.0000000e+00 9.8686491e-14 -1.0000000e+00
      outer loop
         vertex 9.9901000e-02 3.1100000e-02 7.3001000e-02
         vertex 9.9901000e-02 4.9100000e-02 7.3001000e-02
         vertex 1.0000100e-01 3.1100000e-02 7.3001000e-02
      endloop
   endfacet
   facet normal 0.0000000e+00 9.8686491e-14 -1.0000000e+00
      outer loop
         vertex 1.0000100e-01 3.1100000e-02 7.3001000e-02
         vertex 9.9901000e-02 4.9100000e-02 7.3001000e-02
         vertex 1.0000100e-01 4.9100000e-02 7.3001000e-02
      endloop
   endfacet
   facet normal 0.0000000e+00 -9.8686491e-14 1.0000000e+00
      outer loop
         vertex 1.0100000e-04 3.1100000e-02 2.7001000e-02
         vertex 1.0100000e-04 4.9100000e-02 2.7001000e-02
         vertex 1.0000000e-06 3.1100000e-02 2.7001000e-02
      endloop
   endfacet
   facet normal 0.0000000e+00 -9.8686491e-14 1.0000000e+00
      outer loop
         vertex 1.0000000e-06 3.1100000e-02 2.7001000e-02
         vertex 1.0100000e-04 4.9100000e-02 2.7001000e-02
         vertex 1.0000000e-06 4.9100000e-02 2.7001000e-02
      endloop
   endfacet
   facet normal 0.0000000e+00 1.0000000e+00 -3.7711380e-16
      outer loop
         vertex 1.0100000e-04 3.1100000e-02 7.3001000e-02
         vertex 1.0100000e-04 3.1100000e-02 2.7001000e-02
         vertex 1.0000000e-06 3.1100000e-02 7.3001000e-02
      endloop
   endfacet
   facet normal 0.0000000e+00 1.0000000e+00 -3.7711380e-16
      outer loop
         vertex 1.0000000e-06 3.1100000e-02 7.3001000e-02
         vertex 1.0100000e-04 3.1100000e-02 2.7001000e-02
         vertex 1.0000000e-06 3.1100000e-02 2.7001000e-02
      endloop
   endfacet
   facet normal 0.0000000e+00 1.0000000e+00 -3.7711380e-16
      outer loop
         vertex 9.9901000e-02 3.1100000e-02 2.7001000e-02
         vertex 9.9901000e-02 3.1100000e-02 7.3001000e-02
         vertex 1.0000100e-01 3.1100000e-02 2.7001000e-02
      endloop
   endfacet
   facet normal 0.0000000e+00 1.0000000e+00 -3.7711380e-16
      outer loop
         vertex 1.0000100e-01 3.1100000e-02 2.7001000e-02
         vertex 9.9901000e-02 3.1100000e-02 7.3001000e-02
         vertex 1.0000100e-01 3.1100000e-02 7.3001000e-02
      endloop
   endfacet
   facet normal 0.0000000e+00 -9.8686491e-14 1.0000000e+00
      outer loop
         vertex 9.9901000e-02 4.9100000e-02 2.7001000e-02
         vertex 9.9901000e-02 3.1100000e-02 2.7001000e-02
         vertex 1.0000100e-01 4.9100000e-02 2.7001000e-02
      endloop
   endfacet
   facet normal 0.0000000e+00 -9.8686491e-14 1.0000000e+00
      outer loop
         vertex 1.0000100e-01 4.9100000e-02 2.7001000e-02
         vertex 9.9901000e-02 3.1100000e-02 2.7001000e-02
         vertex 1.0000100e-01 3.1100000e-02 2.7001000e-02
      endloop
   endfacet
   facet normal 0.0000000e+00 -0.0000000e+00 1.0000000e+00
      outer loop
         vertex 1.0100000e-04 2.2204460e-20 1.0100000e-04
         vertex 9.9901000e-02 2.2204460e-20 1.0100000e-04
         vertex 1.0100000e-04 8.0000000e-02 1.0100000e-04
      endloop
   endfacet
   facet normal -0.0000000e+00 0.0000000e+00 1.0000000e+00
      outer loop
         vertex 1.0100000e-04 8.0000000e-02 1.0100000e-04
         vertex 9.9901000e-02 2.2204460e-20 1.0100000e-04
         vertex 9.9901000e-02 8.0000000e-02 1.0100000e-04
      endloop
   endfacet
   facet normal -1.0000000e+00 0.0000000e+00 0.0000000e+00
      outer loop
         vertex 9.9901000e-02 3.1100000e-02 2.7001000e-02
         vertex 9.9901000e-02 2.2182256e-17 9.9901000e-02
         vertex 9.9901000e-02 3.1100000e-02 7.3001000e-02
      endloop
   endfacet
   facet normal -1.0000000e+00 0.0000000e+00 0.0000000e+00
      outer loop
         vertex 9.9901000e-02 3.1100000e-02 7.3001000e-02
         vertex 9.9901000e-02 2.2182256e-17 9.9901000e-02
         vertex 9.9901000e-02 8.0000000e-02 9.9901000e-02
      endloop
   endfacet
   facet normal -1.0000000e+00 0.0000000e+00 -0.0000000e+00
      outer loop
         vertex 9.9901000e-02 3.1100000e-02 7.3001000e-02
         vertex 9.9901000e-02 8.0000000e-02 9.9901000e-02
         vertex 9.9901000e-02 4.9100000e-02 7.3001000e-02
      endloop
   endfacet
   facet normal -1.0000000e+00 0.0000000e+00 -0.0000000e+00
      outer loop
         vertex 9.9901000e-02 4.9100000e-02 7.3001000e-02
         vertex 9.9901000e-02 8.0000000e-02 9.9901000e-02
         vertex 9.9901000e-02 8.0000000e-02 1.0100000e-04
      endloop
   endfacet
   facet normal -1.0000000e+00 -0.0000000e+00 -0.0000000e+00
      outer loop
         vertex 9.9901000e-02 4.9100000e-02 7.3001000e-02
         vertex 9.9901000e-02 8.0000000e-02 1.0100000e-04
         vertex 9.9901000e-02 4.9100000e-02 2.7001000e-02
      endloop
   endfacet
   facet normal -1.0000000e+00 -0.0000000e+00 -0.0000000e+00
      outer loop
         vertex 9.9901000e-02 4.9100000e-02 2.7001000e-02
         vertex 9.9901000e-02 8.0000000e-02 1.0100000e-04
         vertex 9.9901000e-02 3.1100000e-02 2.7001000e-02
      endloop
   endfacet
   facet normal -1.0000000e+00 -0.0000000e+00 -0.0000000e+00
      outer loop
         vertex 9.9901000e-02 3.1100000e-02 2.7001000e-02
         vertex 9.9901000e-02 8.0000000e-02 1.0100000e-04
         vertex 9.9901000e-02 2.2204460e-20 1.0100000e-04
      endloop
   endfacet
   facet normal -1.0000000e+00 -0.0000000e+00 0.0000000e+00
      outer loop
         vertex 9.9901000e-02 3.1100000e-02 2.7001000e-02
         vertex 9.9901000e-02 2.2204460e-20 1.0100000e-04
         vertex 9.9901000e-02 2.2182256e-17 9.9901000e-02
      endloop
   endfacet
   facet normal 0.0000000e+00 0.0000000e+00 -1.0000000e+00
      outer loop
         vertex 9.9901000e-02 2.2182256e-17 9.9901000e-02
         vertex 1.0100000e-04 2.2182256e-17 9.9901000e-02
         vertex 9.9901000e-02 8.0000000e-02 9.9901000e-02
      endloop
   endfacet
   facet normal -0.0000000e+00 0.0000000e+00 -1.0000000e+00
      outer loop
         vertex 9.9901000e-02 8.0000000e-02 9.9901000e-02
         vertex 1.0100000e-04 2.2182256e-17 9.9901000e-02
         vertex 1.0100000e-04 8.0000000e-02 9.9901000e-02
      endloop
   endfacet
   facet normal 1.0000000e+00 -0.0000000e+00 0.0000000e+00
      outer loop
         vertex 1.0100000e-04 3.1100000e-02 7.3001000e-02
         vertex 1.0100000e-04 2.2204460e-20 1.0100000e-04
         vertex 1.0100000e-04 3.1100000e-02 2.7001000e-02
      endloop
   endfacet
   facet normal 1.0000000e+00 -0.0000000e+00 0.0000000e+00
      outer loop
         vertex 1.0100000e-04 3.1100000e-02 2.7001000e-02
         vertex 1.0100000e-04 2.2204460e-20 1.0100000e-04
         vertex 1.0100000e-04 8.0000000e-02 1.0100000e-04
      endloop
   endfacet
   facet normal 1.0000000e+00 -0.0000000e+00 -0.0000000e+00
      outer loop
         vertex 1.0100000e-04 3.1100000e-02 2.7001000e-02
         vertex 1.0100000e-04 8.0000000e-02 1.0100000e-04
         vertex 1.0100000e-04 4.9100000e-02 2.7001000e-02
      endloop
   endfacet
   facet normal 1.0000000e+00 -0.0000000e+00 0.0000000e+00
      outer loop
         vertex 1.0100000e-04 4.9100000e-02 2.7001000e-02
         vertex 1.0100000e-04 8.0000000e-02 1.0100000e-04
         vertex 1.0100000e-04 8.0000000e-02 9.9901000e-02
      endloop
   endfacet
   facet normal 1.0000000e+00 0.0000000e+00 -0.0000000e+00
      outer loop
         vertex 1.0100000e-04 4.9100000e-02 2.7001000e-02
         vertex 1.0100000e-04 8.0000000e-02 9.9901000e-02
         vertex 1.0100000e-04 4.9100000e-02 7.3001000e-02
      endloop
   endfacet
   facet normal 1.0000000e+00 0.0000000e+00 -0.0000000e+00
      outer loop
         vertex 1.0100000e-04 4.9100000e-02 7.3001000e-02
         vertex 1.0100000e-04 8.0000000e-02 9.9901000e-02
         vertex 1.0100000e-04 3.1100000e-02 7.3001000e-02
      endloop
   endfacet
   facet normal 1.0000000e+00 0.0000000e+00 -0.0000000e+00
      outer loop
         vertex 1.0100000e-04 3.1100000e-02 7.3001000e-02
         vertex 1.0100000e-04 8.0000000e-02 9.9901000e-02
         vertex 1.0100000e-04 2.2182256e-17 9.9901000e-02
      endloop
   endfacet
   facet normal 1.0000000e+00 0.0000000e+00 0.0000000e+00
      outer loop
         vertex 1.0100000e-04 3.1100000e-02 7.3001000e-02
         vertex 1.0100000e-04 2.2182256e-17 9.9901000e-02
         vertex 1.0100000e-04 2.2204460e-20 1.0100000e-04
      endloop
   endfacet
   facet normal 0.0000000e+00 -1.0000000e+00 2.7811198e-16
      outer loop
         vertex 1.0100000e-04 8.0000000e-02 9.9901000e-02
         vertex 1.0100000e-04 8.0000000e-02 1.0100000e-04
         vertex 9.9901000e-02 8.0000000e-02 9.9901000e-02
      endloop
   endfacet
   facet normal 0.0000000e+00 -1.0000000e+00 2.7811198e-16
      outer loop
         vertex 9.9901000e-02 8.0000000e-02 9.9901000e-02
         vertex 1.0100000e-04 8.0000000e-02 1.0100000e-04
         vertex 9.9901000e-02 8.0000000e-02 1.0100000e-04
      endloop
   endfacet
   facet normal 0.0000000e+00 -0.0000000e+00 1.0000000e+00
      outer loop
         vertex 1.0000000e-06 2.2204460e-17 1.0000100e-01
         vertex 1.0000100e-01 2.2204460e-17 1.0000100e-01
         vertex 1.0000000e-06 8.0100000e-02 1.0000100e-01
      endloop
   endfacet
   facet normal -0.0000000e+00 0.0000000e+00 1.0000000e+00
      outer loop
         vertex 1.0000000e-06 8.0100000e-02 1.0000100e-01
         vertex 1.0000100e-01 2.2204460e-17 1.0000100e-01
         vertex 1.0000100e-01 8.0100000e-02 1.0000100e-01
      endloop
   endfacet
   facet normal -1.0000000e+00 0.0000000e+00 0.0000000e+00
      outer loop
         vertex 1.0000000e-06 3.1100000e-02 2.7001000e-02
         vertex 1.0000000e-06 2.2204460e-17 1.0000100e-01
         vertex 1.0000000e-06 3.1100000e-02 7.3001000e-02
      endloop
   endfacet
   facet normal -1.0000000e+00 0.0000000e+00 0.0000000e+00
      outer loop
         vertex 1.0000000e-06 3.1100000e-02 7.3001000e-02
         vertex 1.0000000e-06 2.2204460e-17 1.0000100e-01
         vertex 1.0000000e-06 8.0100000e-02 1.0000100e-01
      endloop
   endfacet
   facet normal -1.0000000e+00 0.0000000e+00 -0.0000000e+00
      outer loop
         vertex 1.0000000e-06 3.1100000e-02 7.3001000e-02
         vertex 1.0000000e-06 8.0100000e-02 1.0000100e-01
         vertex 1.0000000e-06 4.9100000e-02 7.3001000e-02
      endloop
   endfacet
   facet normal -1.0000000e+00 0.0000000e+00 -0.0000000e+00
      outer loop
         vertex 1.0000000e-06 4.9100000e-02 7.3001000e-02
         vertex 1.0000000e-06 8.0100000e-02 1.0000100e-01
         vertex 1.0000000e-06 8.0100000e-02 1.0000000e-06
      endloop
   endfacet
   facet normal -1.0000000e+00 -0.0000000e+00 -0.0000000e+00
      outer loop
         vertex 1.0000000e-06 4.9100000e-02 7.3001000e-02
         vertex 1.0000000e-06 8.0100000e-02 1.0000000e-06
         vertex 1.0000000e-06 4.9100000e-02 2.7001000e-02
      endloop
   endfacet
   facet normal -1.0000000e+00 -0.0000000e+00 -0.0000000e+00
      outer loop
         vertex 1.0000000e-06 4.9100000e-02 2.7001000e-02
         vertex 1.0000000e-06 8.0100000e-02 1.0000000e-06
         vertex 1.0000000e-06 3.1100000e-02 2.7001000e-02
      endloop
   endfacet
   facet normal -1.0000000e+00 -0.0000000e+00 -0.0000000e+00
      outer loop
         vertex 1.0000000e-06 3.1100000e-02 2.7001000e-02
         vertex 1.0000000e-06 8.0100000e-02 1.0000000e-06
         vertex 1.0000000e-06 0.0000000e+00 1.0000000e-06
      endloop
   endfacet
   facet normal -1.0000000e+00 -0.0000000e+00 0.0000000e+00
      outer loop
         vertex 1.0000000e-06 3.1100000e-02 2.7001000e-02
         vertex 1.0000000e-06 0.0000000e+00 1.0000000e-06
         vertex 1.0000000e-06 2.2204460e-17 1.0000100e-01
      endloop
   endfacet
   facet normal 0.0000000e+00 0.0000000e+00 -1.0000000e+00
      outer loop
         vertex 1.0000100e-01 0.0000000e+00 1.0000000e-06
         vertex 1.0000000e-06 0.0000000e+00 1.0000000e-06
         vertex 1.0000100e-01 8.0100000e-02 1.0000000e-06
      endloop
   endfacet
   facet normal -0.0000000e+00 0.0000000e+00 -1.0000000e+00
      outer loop
         vertex 1.0000100e-01 8.0100000e-02 1.0000000e-06
         vertex 1.0000000e-06 0.0000000e+00 1.0000000e-06
         vertex 1.0000000e-06 8.0100000e-02 1.0000000e-06
      endloop
   endfacet
   facet normal 1.0000000e+00 -0.0000000e+00 0.0000000e+00
      outer loop
         vertex 1.0000100e-01 3.1100000e-02 7.3001000e-02
         vertex 1.0000100e-01 0.0000000e+00 1.0000000e-06
         vertex 1.0000100e-01 3.1100000e-02 2.7001000e-02
      endloop
   endfacet
   facet normal 1.0000000e+00 -0.0000000e+00 0.0000000e+00
      outer loop
         vertex 1.0000100e-01 3.1100000e-02 2.7001000e-02
         vertex 1.0000100e-01 0.0000000e+00 1.0000000e-06
         vertex 1.0000100e-01 8.0100000e-02 1.0000000e-06
      endloop
   endfacet
   facet normal 1.0000000e+00 -0.0000000e+00 -0.0000000e+00
      outer loop
         vertex 1.0000100e-01 3.1100000e-02 2.7001000e-02
         vertex 1.0000100e-01 8.0100000e-02 1.0000000e-06
         vertex 1.0000100e-01 4.9100000e-02 2.7001000e-02
      endloop
   endfacet
   facet normal 1.0000000e+00 -0.0000000e+00 0.0000000e+00
      outer loop
         vertex 1.0000100e-01 4.9100000e-02 2.7001000e-02
         vertex 1.0000100e-01 8.0100000e-02 1.0000000e-06
         vertex 1.0000100e-01 8.0100000e-02 1.0000100e-01
      endloop
   endfacet
   facet normal 1.0000000e+00 0.0000000e+00 -0.0000000e+00
      outer loop
         vertex 1.0000100e-01 4.9100000e-02 2.7001000e-02
         vertex 1.0000100e-01 8.0100000e-02 1.0000100e-01
         vertex 1.0000100e-01 4.9100000e-02 7.3001000e-02
      endloop
   endfacet
   facet normal 1.0000000e+00 0.0000000e+00 -0.0000000e+00
      outer loop
         vertex 1.0000100e-01 4.9100000e-02 7.3001000e-02
         vertex 1.0000100e-01 8.0100000e-02 1.0000100e-01
         vertex 1.0000100e-01 3.1100000e-02 7.3001000e-02
      endloop
   endfacet
   facet normal 1.0000000e+00 0.0000000e+00 -0.0000000e+00
      outer loop
         vertex 1.0000100e-01 3.1100000e-02 7.3001000e-02
         vertex 1.0000100e-01 8.0100000e-02 1.0000100e-01
         vertex 1.0000100e-01 2.2204460e-17 1.0000100e-01
      endloop
   endfacet
   facet normal 1.0000000e+00 0.0000000e+00 0.0000000e+00
      outer loop
         vertex 1.0000100e-01 3.1100000e-02 7.3001000e-02
         vertex 1.0000100e-01 2.2204460e-17 1.0000100e-01
         vertex 1.0000100e-01 0.0000000e+00 1.0000000e-06
      endloop
   endfacet
   facet normal 0.0000000e+00 1.0000000e+00 -2.7755576e-16
      outer loop
         vertex 1.0000100e-01 8.0100000e-02 1.0000100e-01
         vertex 1.0000100e-01 8.0100000e-02 1.0000000e-06
         vertex 1.0000000e-06 8.0100000e-02 1.0000100e-01
      endloop
   endfacet
   facet normal 0.0000000e+00 1.0000000e+00 -2.7755576e-16
      outer loop
         vertex 1.0000000e-06 8.0100000e-02 1.0000100e-01
         vertex 1.0000100e-01 8.0100000e-02 1.0000000e-06
         vertex 1.0000000e-06 8.0100000e-02 1.0000000e-06
      endloop
   endfacet
   facet normal 0.0000000e+00 -1.0000000e+00 2.2204460e-16
      outer loop
         vertex 1.0100000e-04 2.2204460e-20 1.0100000e-04
         vertex 1.0000100e-01 0.0000000e+00 1.0000000e-06
         vertex 9.9901000e-02 2.2204460e-20 1.0100000e-04
      endloop
   endfacet
   facet normal 0.0000000e+00 -1.0000000e+00 2.2204460e-16
      outer loop
         vertex 9.9901000e-02 2.2204460e-20 1.0100000e-04
         vertex 1.0000100e-01 0.0000000e+00 1.0000000e-06
         vertex 1.0000100e-01 2.2204460e-17 1.0000100e-01
      endloop
   endfacet
   facet normal 0.0000000e+00 -1.0000000e+00 2.2204460e-16
      outer loop
         vertex 9.9901000e-02 2.2204460e-20 1.0100000e-04
         vertex 1.0000100e-01 2.2204460e-17 1.0000100e-01
         vertex 9.9901000e-02 2.2182256e-17 9.9901000e-02
      endloop
   endfacet
   facet normal 0.0000000e+00 -1.0000000e+00 2.2204460e-16
      outer loop
         vertex 9.9901000e-02 2.2182256e-17 9.9901000e-02
         vertex 1.0000100e-01 2.2204460e-17 1.0000100e-01
         vertex 1.0100000e-04 2.2182256e-17 9.9901000e-02
      endloop
   endfacet
   facet normal 0.0000000e+00 -1.0000000e+00 2.2204460e-16
      outer loop
         vertex 1.0100000e-04 2.2182256e-17 9.9901000e-02
         vertex 1.0000100e-01 2.2204460e-17 1.0000100e-01
         vertex 1.0000000e-06 2.2204460e-17 1.0000100e-01
      endloop
   endfacet
   facet normal 0.0000000e+00 -1.0000000e+00 2.2204460e-16
      outer loop
         vertex 1.0100000e-04 2.2182256e-17 9.9901000e-02
         vertex 1.0000000e-06 2.2204460e-17 1.0000100e-01
         vertex 1.0000000e-06 0.0000000e+00 1.0000000e-06
      endloop
   endfacet
   facet normal 0.0000000e+00 -1.0000000e+00 2.2204460e-16
      outer loop
         vertex 1.0000100e-01 0.0000000e+00 1.0000000e-06
         vertex 1.0100000e-04 2.2204460e-20 1.0100000e-04
         vertex 1.0000000e-06 0.0000000e+00 1.0000000e-06
      endloop
   endfacet
   facet normal 0.0000000e+00 -1.0000000e+00 2.2204460e-16
      outer loop
         vertex 1.0000000e-06 0.0000000e+00 1.0000000e-06
         vertex 1.0100000e-04 2.2204460e-20 1.0100000e-04
         vertex 1.0100000e-04 2.2182256e-17 9.9901000e-02
      endloop
   endfacet
endsolid AutoCAD
