solid AutoCAD
   facet normal 0.0000000e+00 -1.0000000e+00 6.7880484e-15
      outer loop
         vertex 5.0100000e-04 4.9100000e-02 2.7001000e-02
         vertex 5.0100000e-04 4.9100000e-02 7.3001000e-02
         vertex 1.0000000e-06 4.9100000e-02 2.7001000e-02
      endloop
   endfacet
   facet normal 0.0000000e+00 -1.0000000e+00 6.7880484e-15
      outer loop
         vertex 1.0000000e-06 4.9100000e-02 2.7001000e-02
         vertex 5.0100000e-04 4.9100000e-02 7.3001000e-02
         vertex 1.0000000e-06 4.9100000e-02 7.3001000e-02
      endloop
   endfacet
   facet normal 1.3877788e-14 -1.0000000e+00 6.7880484e-15
      outer loop
         vertex 9.9501000e-02 4.9100000e-02 7.3001000e-02
         vertex 9.9501000e-02 4.9100000e-02 2.7001000e-02
         vertex 1.0000100e-01 4.9100000e-02 7.3001000e-02
      endloop
   endfacet
   facet normal 1.3877788e-14 -1.0000000e+00 6.7880484e-15
      outer loop
         vertex 1.0000100e-01 4.9100000e-02 7.3001000e-02
         vertex 9.9501000e-02 4.9100000e-02 2.7001000e-02
         vertex 1.0000100e-01 4.9100000e-02 2.7001000e-02
      endloop
   endfacet
   facet normal 0.0000000e+00 -9.8686491e-14 -1.0000000e+00
      outer loop
         vertex 5.0100000e-04 4.9100000e-02 7.3001000e-02
         vertex 5.0100000e-04 3.1100000e-02 7.3001000e-02
         vertex 1.0000000e-06 4.9100000e-02 7.3001000e-02
      endloop
   endfacet
   facet normal 6.8477509e-28 -9.8686491e-14 -1.0000000e+00
      outer loop
         vertex 1.0000000e-06 4.9100000e-02 7.3001000e-02
         vertex 5.0100000e-04 3.1100000e-02 7.3001000e-02
         vertex 1.0000000e-06 3.1100000e-02 7.3001000e-02
      endloop
   endfacet
   facet normal 6.8477509e-28 -9.8686491e-14 -1.0000000e+00
      outer loop
         vertex 9.9501000e-02 3.1100000e-02 7.3001000e-02
         vertex 9.9501000e-02 4.9100000e-02 7.3001000e-02
         vertex 1.0000100e-01 3.1100000e-02 7.3001000e-02
      endloop
   endfacet
   facet normal 1.3695502e-27 -9.8686491e-14 -1.0000000e+00
      outer loop
         vertex 1.0000100e-01 3.1100000e-02 7.3001000e-02
         vertex 9.9501000e-02 4.9100000e-02 7.3001000e-02
         vertex 1.0000100e-01 4.9100000e-02 7.3001000e-02
      endloop
   endfacet
   facet normal -6.8477509e-28 9.8686491e-14 1.0000000e+00
      outer loop
         vertex 5.0100000e-04 3.1100000e-02 2.7001000e-02
         vertex 5.0100000e-04 4.9100000e-02 2.7001000e-02
         vertex 1.0000000e-06 3.1100000e-02 2.7001000e-02
      endloop
   endfacet
   facet normal 0.0000000e+00 9.8686491e-14 1.0000000e+00
      outer loop
         vertex 1.0000000e-06 3.1100000e-02 2.7001000e-02
         vertex 5.0100000e-04 4.9100000e-02 2.7001000e-02
         vertex 1.0000000e-06 4.9100000e-02 2.7001000e-02
      endloop
   endfacet
   facet normal -6.9388939e-15 1.0000000e+00 -7.0143167e-15
      outer loop
         vertex 5.0100000e-04 3.1100000e-02 7.3001000e-02
         vertex 5.0100000e-04 3.1100000e-02 2.7001000e-02
         vertex 1.0000000e-06 3.1100000e-02 7.3001000e-02
      endloop
   endfacet
   facet normal -6.9388939e-15 1.0000000e+00 -7.0143167e-15
      outer loop
         vertex 1.0000000e-06 3.1100000e-02 7.3001000e-02
         vertex 5.0100000e-04 3.1100000e-02 2.7001000e-02
         vertex 1.0000000e-06 3.1100000e-02 2.7001000e-02
      endloop
   endfacet
   facet normal -6.9388939e-15 1.0000000e+00 -7.0143167e-15
      outer loop
         vertex 9.9501000e-02 3.1100000e-02 2.7001000e-02
         vertex 9.9501000e-02 3.1100000e-02 7.3001000e-02
         vertex 1.0000100e-01 3.1100000e-02 2.7001000e-02
      endloop
   endfacet
   facet normal -6.9388939e-15 1.0000000e+00 -7.0143167e-15
      outer loop
         vertex 1.0000100e-01 3.1100000e-02 2.7001000e-02
         vertex 9.9501000e-02 3.1100000e-02 7.3001000e-02
         vertex 1.0000100e-01 3.1100000e-02 7.3001000e-02
      endloop
   endfacet
   facet normal -1.3695502e-27 9.8686491e-14 1.0000000e+00
      outer loop
         vertex 9.9501000e-02 4.9100000e-02 2.7001000e-02
         vertex 9.9501000e-02 3.1100000e-02 2.7001000e-02
         vertex 1.0000100e-01 4.9100000e-02 2.7001000e-02
      endloop
   endfacet
   facet normal -6.8477509e-28 9.8686491e-14 1.0000000e+00
      outer loop
         vertex 1.0000100e-01 4.9100000e-02 2.7001000e-02
         vertex 9.9501000e-02 3.1100000e-02 2.7001000e-02
         vertex 1.0000100e-01 3.1100000e-02 2.7001000e-02
      endloop
   endfacet
   facet normal -1.0000000e+00 0.0000000e+00 0.0000000e+00
      outer loop
         vertex 9.9501000e-02 3.1100000e-02 2.7001000e-02
         vertex 9.9501000e-02 6.8218695e-16 9.9501000e-02
         vertex 9.9501000e-02 3.1100000e-02 7.3001000e-02
      endloop
   endfacet
   facet normal -1.0000000e+00 0.0000000e+00 0.0000000e+00
      outer loop
         vertex 9.9501000e-02 3.1100000e-02 7.3001000e-02
         vertex 9.9501000e-02 6.8218695e-16 9.9501000e-02
         vertex 9.9501000e-02 8.0000000e-02 9.9501000e-02
      endloop
   endfacet
   facet normal -1.0000000e+00 0.0000000e+00 -0.0000000e+00
      outer loop
         vertex 9.9501000e-02 3.1100000e-02 7.3001000e-02
         vertex 9.9501000e-02 8.0000000e-02 9.9501000e-02
         vertex 9.9501000e-02 4.9100000e-02 7.3001000e-02
      endloop
   endfacet
   facet normal -1.0000000e+00 0.0000000e+00 -0.0000000e+00
      outer loop
         vertex 9.9501000e-02 4.9100000e-02 7.3001000e-02
         vertex 9.9501000e-02 8.0000000e-02 9.9501000e-02
         vertex 9.9501000e-02 8.0000000e-02 5.0100000e-04
      endloop
   endfacet
   facet normal -1.0000000e+00 -0.0000000e+00 -0.0000000e+00
      outer loop
         vertex 9.9501000e-02 4.9100000e-02 7.3001000e-02
         vertex 9.9501000e-02 8.0000000e-02 5.0100000e-04
         vertex 9.9501000e-02 4.9100000e-02 2.7001000e-02
      endloop
   endfacet
   facet normal -1.0000000e+00 -0.0000000e+00 -0.0000000e+00
      outer loop
         vertex 9.9501000e-02 4.9100000e-02 2.7001000e-02
         vertex 9.9501000e-02 8.0000000e-02 5.0100000e-04
         vertex 9.9501000e-02 3.1100000e-02 2.7001000e-02
      endloop
   endfacet
   facet normal -1.0000000e+00 -0.0000000e+00 -0.0000000e+00
      outer loop
         vertex 9.9501000e-02 3.1100000e-02 2.7001000e-02
         vertex 9.9501000e-02 8.0000000e-02 5.0100000e-04
         vertex 9.9501000e-02 4.5102810e-20 5.0100000e-04
      endloop
   endfacet
   facet normal -1.0000000e+00 -0.0000000e+00 0.0000000e+00
      outer loop
         vertex 9.9501000e-02 3.1100000e-02 2.7001000e-02
         vertex 9.9501000e-02 4.5102810e-20 5.0100000e-04
         vertex 9.9501000e-02 6.8218695e-16 9.9501000e-02
      endloop
   endfacet
   facet normal -0.0000000e+00 0.0000000e+00 -1.0000000e+00
      outer loop
         vertex 9.9501000e-02 6.8218695e-16 9.9501000e-02
         vertex 5.0100000e-04 8.9754593e-18 9.9501000e-02
         vertex 9.9501000e-02 8.0000000e-02 9.9501000e-02
      endloop
   endfacet
   facet normal -0.0000000e+00 0.0000000e+00 -1.0000000e+00
      outer loop
         vertex 9.9501000e-02 8.0000000e-02 9.9501000e-02
         vertex 5.0100000e-04 8.9754593e-18 9.9501000e-02
         vertex 5.0100000e-04 8.0000000e-02 9.9501000e-02
      endloop
   endfacet
   facet normal 1.0000000e+00 -0.0000000e+00 0.0000000e+00
      outer loop
         vertex 5.0100000e-04 3.1100000e-02 7.3001000e-02
         vertex 5.0100000e-04 0.0000000e+00 5.0100000e-04
         vertex 5.0100000e-04 3.1100000e-02 2.7001000e-02
      endloop
   endfacet
   facet normal 1.0000000e+00 -0.0000000e+00 0.0000000e+00
      outer loop
         vertex 5.0100000e-04 3.1100000e-02 2.7001000e-02
         vertex 5.0100000e-04 0.0000000e+00 5.0100000e-04
         vertex 5.0100000e-04 8.0000000e-02 5.0100000e-04
      endloop
   endfacet
   facet normal 1.0000000e+00 -0.0000000e+00 -0.0000000e+00
      outer loop
         vertex 5.0100000e-04 3.1100000e-02 2.7001000e-02
         vertex 5.0100000e-04 8.0000000e-02 5.0100000e-04
         vertex 5.0100000e-04 4.9100000e-02 2.7001000e-02
      endloop
   endfacet
   facet normal 1.0000000e+00 -0.0000000e+00 0.0000000e+00
      outer loop
         vertex 5.0100000e-04 4.9100000e-02 2.7001000e-02
         vertex 5.0100000e-04 8.0000000e-02 5.0100000e-04
         vertex 5.0100000e-04 8.0000000e-02 9.9501000e-02
      endloop
   endfacet
   facet normal 1.0000000e+00 0.0000000e+00 -0.0000000e+00
      outer loop
         vertex 5.0100000e-04 4.9100000e-02 2.7001000e-02
         vertex 5.0100000e-04 8.0000000e-02 9.9501000e-02
         vertex 5.0100000e-04 4.9100000e-02 7.3001000e-02
      endloop
   endfacet
   facet normal 1.0000000e+00 0.0000000e+00 -0.0000000e+00
      outer loop
         vertex 5.0100000e-04 4.9100000e-02 7.3001000e-02
         vertex 5.0100000e-04 8.0000000e-02 9.9501000e-02
         vertex 5.0100000e-04 3.1100000e-02 7.3001000e-02
      endloop
   endfacet
   facet normal 1.0000000e+00 0.0000000e+00 -0.0000000e+00
      outer loop
         vertex 5.0100000e-04 3.1100000e-02 7.3001000e-02
         vertex 5.0100000e-04 8.0000000e-02 9.9501000e-02
         vertex 5.0100000e-04 8.9754593e-18 9.9501000e-02
      endloop
   endfacet
   facet normal 1.0000000e+00 0.0000000e+00 0.0000000e+00
      outer loop
         vertex 5.0100000e-04 3.1100000e-02 7.3001000e-02
         vertex 5.0100000e-04 8.9754593e-18 9.9501000e-02
         vertex 5.0100000e-04 0.0000000e+00 5.0100000e-04
      endloop
   endfacet
   facet normal 0.0000000e+00 -0.0000000e+00 1.0000000e+00
      outer loop
         vertex 5.0100000e-04 0.0000000e+00 5.0100000e-04
         vertex 9.9501000e-02 4.5102810e-20 5.0100000e-04
         vertex 5.0100000e-04 8.0000000e-02 5.0100000e-04
      endloop
   endfacet
   facet normal -0.0000000e+00 0.0000000e+00 1.0000000e+00
      outer loop
         vertex 5.0100000e-04 8.0000000e-02 5.0100000e-04
         vertex 9.9501000e-02 4.5102810e-20 5.0100000e-04
         vertex 9.9501000e-02 8.0000000e-02 5.0100000e-04
      endloop
   endfacet
   facet normal 6.8688041e-15 -1.0000000e+00 6.8688041e-15
      outer loop
         vertex 5.0100000e-04 8.0000000e-02 5.0100000e-04
         vertex 9.9501000e-02 8.0000000e-02 5.0100000e-04
         vertex 5.0100000e-04 8.0000000e-02 9.9501000e-02
      endloop
   endfacet
   facet normal 6.8688041e-15 -1.0000000e+00 6.8688041e-15
      outer loop
         vertex 5.0100000e-04 8.0000000e-02 9.9501000e-02
         vertex 9.9501000e-02 8.0000000e-02 5.0100000e-04
         vertex 9.9501000e-02 8.0000000e-02 9.9501000e-02
      endloop
   endfacet
   facet normal -1.0000000e+00 0.0000000e+00 0.0000000e+00
      outer loop
         vertex 1.0000000e-06 3.1100000e-02 2.7001000e-02
         vertex 1.0000000e-06 9.0205621e-18 1.0000100e-01
         vertex 1.0000000e-06 3.1100000e-02 7.3001000e-02
      endloop
   endfacet
   facet normal -1.0000000e+00 0.0000000e+00 0.0000000e+00
      outer loop
         vertex 1.0000000e-06 3.1100000e-02 7.3001000e-02
         vertex 1.0000000e-06 9.0205621e-18 1.0000100e-01
         vertex 1.0000000e-06 8.0100000e-02 1.0000100e-01
      endloop
   endfacet
   facet normal -1.0000000e+00 0.0000000e+00 -0.0000000e+00
      outer loop
         vertex 1.0000000e-06 3.1100000e-02 7.3001000e-02
         vertex 1.0000000e-06 8.0100000e-02 1.0000100e-01
         vertex 1.0000000e-06 4.9100000e-02 7.3001000e-02
      endloop
   endfacet
   facet normal -1.0000000e+00 0.0000000e+00 -0.0000000e+00
      outer loop
         vertex 1.0000000e-06 4.9100000e-02 7.3001000e-02
         vertex 1.0000000e-06 8.0100000e-02 1.0000100e-01
         vertex 1.0000000e-06 8.0100000e-02 1.0000000e-06
      endloop
   endfacet
   facet normal -1.0000000e+00 -0.0000000e+00 -0.0000000e+00
      outer loop
         vertex 1.0000000e-06 4.9100000e-02 7.3001000e-02
         vertex 1.0000000e-06 8.0100000e-02 1.0000000e-06
         vertex 1.0000000e-06 4.9100000e-02 2.7001000e-02
      endloop
   endfacet
   facet normal -1.0000000e+00 -0.0000000e+00 -0.0000000e+00
      outer loop
         vertex 1.0000000e-06 4.9100000e-02 2.7001000e-02
         vertex 1.0000000e-06 8.0100000e-02 1.0000000e-06
         vertex 1.0000000e-06 3.1100000e-02 2.7001000e-02
      endloop
   endfacet
   facet normal -1.0000000e+00 -0.0000000e+00 -0.0000000e+00
      outer loop
         vertex 1.0000000e-06 3.1100000e-02 2.7001000e-02
         vertex 1.0000000e-06 8.0100000e-02 1.0000000e-06
         vertex 1.0000000e-06 0.0000000e+00 1.0000000e-06
      endloop
   endfacet
   facet normal -1.0000000e+00 -0.0000000e+00 0.0000000e+00
      outer loop
         vertex 1.0000000e-06 3.1100000e-02 2.7001000e-02
         vertex 1.0000000e-06 0.0000000e+00 1.0000000e-06
         vertex 1.0000000e-06 9.0205621e-18 1.0000100e-01
      endloop
   endfacet
   facet normal 0.0000000e+00 0.0000000e+00 -1.0000000e+00
      outer loop
         vertex 1.0000100e-01 0.0000000e+00 1.0000000e-06
         vertex 1.0000000e-06 0.0000000e+00 1.0000000e-06
         vertex 1.0000100e-01 8.0100000e-02 1.0000000e-06
      endloop
   endfacet
   facet normal -0.0000000e+00 0.0000000e+00 -1.0000000e+00
      outer loop
         vertex 1.0000100e-01 8.0100000e-02 1.0000000e-06
         vertex 1.0000000e-06 0.0000000e+00 1.0000000e-06
         vertex 1.0000000e-06 8.0100000e-02 1.0000000e-06
      endloop
   endfacet
   facet normal 1.0000000e+00 -0.0000000e+00 0.0000000e+00
      outer loop
         vertex 1.0000100e-01 3.1100000e-02 7.3001000e-02
         vertex 1.0000100e-01 0.0000000e+00 1.0000000e-06
         vertex 1.0000100e-01 3.1100000e-02 2.7001000e-02
      endloop
   endfacet
   facet normal 1.0000000e+00 -0.0000000e+00 0.0000000e+00
      outer loop
         vertex 1.0000100e-01 3.1100000e-02 2.7001000e-02
         vertex 1.0000100e-01 0.0000000e+00 1.0000000e-06
         vertex 1.0000100e-01 8.0100000e-02 1.0000000e-06
      endloop
   endfacet
   facet normal 1.0000000e+00 -0.0000000e+00 -0.0000000e+00
      outer loop
         vertex 1.0000100e-01 3.1100000e-02 2.7001000e-02
         vertex 1.0000100e-01 8.0100000e-02 1.0000000e-06
         vertex 1.0000100e-01 4.9100000e-02 2.7001000e-02
      endloop
   endfacet
   facet normal 1.0000000e+00 -0.0000000e+00 0.0000000e+00
      outer loop
         vertex 1.0000100e-01 4.9100000e-02 2.7001000e-02
         vertex 1.0000100e-01 8.0100000e-02 1.0000000e-06
         vertex 1.0000100e-01 8.0100000e-02 1.0000100e-01
      endloop
   endfacet
   facet normal 1.0000000e+00 0.0000000e+00 -0.0000000e+00
      outer loop
         vertex 1.0000100e-01 4.9100000e-02 2.7001000e-02
         vertex 1.0000100e-01 8.0100000e-02 1.0000100e-01
         vertex 1.0000100e-01 4.9100000e-02 7.3001000e-02
      endloop
   endfacet
   facet normal 1.0000000e+00 0.0000000e+00 -0.0000000e+00
      outer loop
         vertex 1.0000100e-01 4.9100000e-02 7.3001000e-02
         vertex 1.0000100e-01 8.0100000e-02 1.0000100e-01
         vertex 1.0000100e-01 3.1100000e-02 7.3001000e-02
      endloop
   endfacet
   facet normal 1.0000000e+00 0.0000000e+00 -0.0000000e+00
      outer loop
         vertex 1.0000100e-01 3.1100000e-02 7.3001000e-02
         vertex 1.0000100e-01 8.0100000e-02 1.0000100e-01
         vertex 1.0000100e-01 6.8903216e-16 1.0000100e-01
      endloop
   endfacet
   facet normal 1.0000000e+00 0.0000000e+00 0.0000000e+00
      outer loop
         vertex 1.0000100e-01 3.1100000e-02 7.3001000e-02
         vertex 1.0000100e-01 6.8903216e-16 1.0000100e-01
         vertex 1.0000100e-01 0.0000000e+00 1.0000000e-06
      endloop
   endfacet
   facet normal 0.0000000e+00 -0.0000000e+00 1.0000000e+00
      outer loop
         vertex 1.0000000e-06 9.0205621e-18 1.0000100e-01
         vertex 1.0000100e-01 6.8903216e-16 1.0000100e-01
         vertex 1.0000000e-06 8.0100000e-02 1.0000100e-01
      endloop
   endfacet
   facet normal -0.0000000e+00 0.0000000e+00 1.0000000e+00
      outer loop
         vertex 1.0000000e-06 8.0100000e-02 1.0000100e-01
         vertex 1.0000100e-01 6.8903216e-16 1.0000100e-01
         vertex 1.0000100e-01 8.0100000e-02 1.0000100e-01
      endloop
   endfacet
   facet normal -6.8001160e-15 1.0000000e+00 -6.8001160e-15
      outer loop
         vertex 1.0000000e-06 8.0100000e-02 1.0000100e-01
         vertex 1.0000100e-01 8.0100000e-02 1.0000100e-01
         vertex 1.0000000e-06 8.0100000e-02 1.0000000e-06
      endloop
   endfacet
   facet normal -6.8001160e-15 1.0000000e+00 -6.8001160e-15
      outer loop
         vertex 1.0000000e-06 8.0100000e-02 1.0000000e-06
         vertex 1.0000100e-01 8.0100000e-02 1.0000100e-01
         vertex 1.0000100e-01 8.0100000e-02 1.0000000e-06
      endloop
   endfacet
   facet normal 6.8001160e-15 -1.0000000e+00 6.8903216e-15
      outer loop
         vertex 9.9501000e-02 4.5102810e-20 5.0100000e-04
         vertex 1.0000100e-01 6.8903216e-16 1.0000100e-01
         vertex 9.9501000e-02 6.8218695e-16 9.9501000e-02
      endloop
   endfacet
   facet normal 6.8001160e-15 -1.0000000e+00 6.8903216e-15
      outer loop
         vertex 9.9501000e-02 6.8218695e-16 9.9501000e-02
         vertex 1.0000100e-01 6.8903216e-16 1.0000100e-01
         vertex 1.0000000e-06 9.0205621e-18 1.0000100e-01
      endloop
   endfacet
   facet normal 6.8001160e-15 -1.0000000e+00 6.8903216e-15
      outer loop
         vertex 9.9501000e-02 6.8218695e-16 9.9501000e-02
         vertex 1.0000000e-06 9.0205621e-18 1.0000100e-01
         vertex 5.0100000e-04 8.9754593e-18 9.9501000e-02
      endloop
   endfacet
   facet normal 4.5558395e-19 -1.0000000e+00 9.0661205e-17
      outer loop
         vertex 5.0100000e-04 8.9754593e-18 9.9501000e-02
         vertex 1.0000000e-06 9.0205621e-18 1.0000100e-01
         vertex 5.0100000e-04 0.0000000e+00 5.0100000e-04
      endloop
   endfacet
   facet normal -9.0205621e-17 -1.0000000e+00 9.0205621e-17
      outer loop
         vertex 5.0100000e-04 0.0000000e+00 5.0100000e-04
         vertex 1.0000000e-06 9.0205621e-18 1.0000100e-01
         vertex 1.0000000e-06 0.0000000e+00 1.0000000e-06
      endloop
   endfacet
   facet normal 0.0000000e+00 -1.0000000e+00 -0.0000000e+00
      outer loop
         vertex 5.0100000e-04 0.0000000e+00 5.0100000e-04
         vertex 1.0000000e-06 0.0000000e+00 1.0000000e-06
         vertex 1.0000100e-01 0.0000000e+00 1.0000000e-06
      endloop
   endfacet
   facet normal 6.8001160e-15 -1.0000000e+00 6.8903216e-15
      outer loop
         vertex 1.0000100e-01 6.8903216e-16 1.0000100e-01
         vertex 9.9501000e-02 4.5102810e-20 5.0100000e-04
         vertex 1.0000100e-01 0.0000000e+00 1.0000000e-06
      endloop
   endfacet
   facet normal 4.5558394e-19 -1.0000000e+00 9.0661205e-17
      outer loop
         vertex 1.0000100e-01 0.0000000e+00 1.0000000e-06
         vertex 9.9501000e-02 4.5102810e-20 5.0100000e-04
         vertex 5.0100000e-04 0.0000000e+00 5.0100000e-04
      endloop
   endfacet
endsolid AutoCAD
