solid AutoCAD
   facet normal 0.0000000e+00 -1.0000000e+00 3.9521526e-14
      outer loop
         vertex 9.9901000e-02 4.9101000e-02 6.1501000e-02
         vertex 9.9901000e-02 4.9101000e-02 3.8501000e-02
         vertex 1.0000100e-01 4.9101000e-02 6.1501000e-02
      endloop
   endfacet
   facet normal 0.0000000e+00 -1.0000000e+00 3.9521526e-14
      outer loop
         vertex 1.0000100e-01 4.9101000e-02 6.1501000e-02
         vertex 9.9901000e-02 4.9101000e-02 3.8501000e-02
         vertex 1.0000100e-01 4.9101000e-02 3.8501000e-02
      endloop
   endfacet
   facet normal 0.0000000e+00 -1.0000000e+00 3.9521526e-14
      outer loop
         vertex 1.0100000e-04 4.9101000e-02 3.8501000e-02
         vertex 1.0100000e-04 4.9101000e-02 6.1501000e-02
         vertex 1.0000000e-06 4.9101000e-02 3.8501000e-02
      endloop
   endfacet
   facet normal 0.0000000e+00 -1.0000000e+00 3.9521526e-14
      outer loop
         vertex 1.0000000e-06 4.9101000e-02 3.8501000e-02
         vertex 1.0100000e-04 4.9101000e-02 6.1501000e-02
         vertex 1.0000000e-06 4.9101000e-02 6.1501000e-02
      endloop
   endfacet
   facet normal 0.0000000e+00 -9.8686491e-14 -1.0000000e+00
      outer loop
         vertex 9.9901000e-02 3.1101000e-02 6.1501000e-02
         vertex 9.9901000e-02 4.9101000e-02 6.1501000e-02
         vertex 1.0000100e-01 3.1101000e-02 6.1501000e-02
      endloop
   endfacet
   facet normal 0.0000000e+00 -9.8686491e-14 -1.0000000e+00
      outer loop
         vertex 1.0000100e-01 3.1101000e-02 6.1501000e-02
         vertex 9.9901000e-02 4.9101000e-02 6.1501000e-02
         vertex 1.0000100e-01 4.9101000e-02 6.1501000e-02
      endloop
   endfacet
   facet normal 0.0000000e+00 9.8686491e-14 1.0000000e+00
      outer loop
         vertex 9.9901000e-02 4.9101000e-02 3.8501000e-02
         vertex 9.9901000e-02 3.1101000e-02 3.8501000e-02
         vertex 1.0000100e-01 4.9101000e-02 3.8501000e-02
      endloop
   endfacet
   facet normal -0.0000000e+00 9.8686491e-14 1.0000000e+00
      outer loop
         vertex 1.0000100e-01 4.9101000e-02 3.8501000e-02
         vertex 9.9901000e-02 3.1101000e-02 3.8501000e-02
         vertex 1.0000100e-01 3.1101000e-02 3.8501000e-02
      endloop
   endfacet
   facet normal 0.0000000e+00 9.8686491e-14 1.0000000e+00
      outer loop
         vertex 1.0100000e-04 3.1101000e-02 3.8501000e-02
         vertex 1.0100000e-04 4.9101000e-02 3.8501000e-02
         vertex 1.0000000e-06 3.1101000e-02 3.8501000e-02
      endloop
   endfacet
   facet normal 0.0000000e+00 9.8686491e-14 1.0000000e+00
      outer loop
         vertex 1.0000000e-06 3.1101000e-02 3.8501000e-02
         vertex 1.0100000e-04 4.9101000e-02 3.8501000e-02
         vertex 1.0000000e-06 4.9101000e-02 3.8501000e-02
      endloop
   endfacet
   facet normal 0.0000000e+00 1.0000000e+00 -4.0124908e-14
      outer loop
         vertex 9.9901000e-02 3.1101000e-02 3.8501000e-02
         vertex 9.9901000e-02 3.1101000e-02 6.1501000e-02
         vertex 1.0000100e-01 3.1101000e-02 3.8501000e-02
      endloop
   endfacet
   facet normal 0.0000000e+00 1.0000000e+00 -4.0124908e-14
      outer loop
         vertex 1.0000100e-01 3.1101000e-02 3.8501000e-02
         vertex 9.9901000e-02 3.1101000e-02 6.1501000e-02
         vertex 1.0000100e-01 3.1101000e-02 6.1501000e-02
      endloop
   endfacet
   facet normal 0.0000000e+00 1.0000000e+00 -4.0124908e-14
      outer loop
         vertex 1.0100000e-04 3.1101000e-02 6.1501000e-02
         vertex 1.0100000e-04 3.1101000e-02 3.8501000e-02
         vertex 1.0000000e-06 3.1101000e-02 6.1501000e-02
      endloop
   endfacet
   facet normal 0.0000000e+00 1.0000000e+00 -4.0124908e-14
      outer loop
         vertex 1.0000000e-06 3.1101000e-02 6.1501000e-02
         vertex 1.0100000e-04 3.1101000e-02 3.8501000e-02
         vertex 1.0000000e-06 3.1101000e-02 3.8501000e-02
      endloop
   endfacet
   facet normal 0.0000000e+00 -9.8686491e-14 -1.0000000e+00
      outer loop
         vertex 1.0100000e-04 4.9101000e-02 6.1501000e-02
         vertex 1.0100000e-04 3.1101000e-02 6.1501000e-02
         vertex 1.0000000e-06 4.9101000e-02 6.1501000e-02
      endloop
   endfacet
   facet normal -0.0000000e+00 -9.8686491e-14 -1.0000000e+00
      outer loop
         vertex 1.0000000e-06 4.9101000e-02 6.1501000e-02
         vertex 1.0100000e-04 3.1101000e-02 6.1501000e-02
         vertex 1.0000000e-06 3.1101000e-02 6.1501000e-02
      endloop
   endfacet
   facet normal -0.0000000e+00 0.0000000e+00 -1.0000000e+00
      outer loop
         vertex 9.9901000e-02 1.0000000e-06 9.9901000e-02
         vertex 1.0100000e-04 1.0000000e-06 9.9901000e-02
         vertex 9.9901000e-02 8.0001000e-02 9.9901000e-02
      endloop
   endfacet
   facet normal -0.0000000e+00 0.0000000e+00 -1.0000000e+00
      outer loop
         vertex 9.9901000e-02 8.0001000e-02 9.9901000e-02
         vertex 1.0100000e-04 1.0000000e-06 9.9901000e-02
         vertex 1.0100000e-04 8.0001000e-02 9.9901000e-02
      endloop
   endfacet
   facet normal 1.0000000e+00 5.7117583e-14 -2.2918378e-27
      outer loop
         vertex 1.0100000e-04 3.1101000e-02 6.1501000e-02
         vertex 1.0100000e-04 1.0000000e-06 1.0100000e-04
         vertex 1.0100000e-04 3.1101000e-02 3.8501000e-02
      endloop
   endfacet
   facet normal 1.0000000e+00 -0.0000000e+00 4.6259293e-14
      outer loop
         vertex 1.0100000e-04 3.1101000e-02 3.8501000e-02
         vertex 1.0100000e-04 1.0000000e-06 1.0100000e-04
         vertex 1.0100000e-04 8.0001000e-02 1.0100000e-04
      endloop
   endfacet
   facet normal 1.0000000e+00 4.5651673e-27 4.6259293e-14
      outer loop
         vertex 1.0100000e-04 3.1101000e-02 3.8501000e-02
         vertex 1.0100000e-04 8.0001000e-02 1.0100000e-04
         vertex 1.0100000e-04 4.9101000e-02 3.8501000e-02
      endloop
   endfacet
   facet normal 1.0000000e+00 -3.5367924e-14 1.7799167e-14
      outer loop
         vertex 1.0100000e-04 4.9101000e-02 3.8501000e-02
         vertex 1.0100000e-04 8.0001000e-02 1.0100000e-04
         vertex 1.0100000e-04 8.0001000e-02 9.9901000e-02
      endloop
   endfacet
   facet normal 1.0000000e+00 0.0000000e+00 -0.0000000e+00
      outer loop
         vertex 1.0100000e-04 4.9101000e-02 3.8501000e-02
         vertex 1.0100000e-04 8.0001000e-02 9.9901000e-02
         vertex 1.0100000e-04 4.9101000e-02 6.1501000e-02
      endloop
   endfacet
   facet normal 1.0000000e+00 0.0000000e+00 -0.0000000e+00
      outer loop
         vertex 1.0100000e-04 4.9101000e-02 6.1501000e-02
         vertex 1.0100000e-04 8.0001000e-02 9.9901000e-02
         vertex 1.0100000e-04 3.1101000e-02 6.1501000e-02
      endloop
   endfacet
   facet normal 1.0000000e+00 0.0000000e+00 -0.0000000e+00
      outer loop
         vertex 1.0100000e-04 3.1101000e-02 6.1501000e-02
         vertex 1.0100000e-04 8.0001000e-02 9.9901000e-02
         vertex 1.0100000e-04 1.0000000e-06 9.9901000e-02
      endloop
   endfacet
   facet normal 1.0000000e+00 2.1977106e-14 1.7799167e-14
      outer loop
         vertex 1.0100000e-04 3.1101000e-02 6.1501000e-02
         vertex 1.0100000e-04 1.0000000e-06 9.9901000e-02
         vertex 1.0100000e-04 1.0000000e-06 1.0100000e-04
      endloop
   endfacet
   facet normal -1.7799167e-14 0.0000000e+00 1.0000000e+00
      outer loop
         vertex 1.0100000e-04 1.0000000e-06 1.0100000e-04
         vertex 9.9901000e-02 1.0000000e-06 1.0100000e-04
         vertex 1.0100000e-04 8.0001000e-02 1.0100000e-04
      endloop
   endfacet
   facet normal -1.7799167e-14 0.0000000e+00 1.0000000e+00
      outer loop
         vertex 1.0100000e-04 8.0001000e-02 1.0100000e-04
         vertex 9.9901000e-02 1.0000000e-06 1.0100000e-04
         vertex 9.9901000e-02 8.0001000e-02 1.0100000e-04
      endloop
   endfacet
   facet normal -1.0000000e+00 0.0000000e+00 0.0000000e+00
      outer loop
         vertex 9.9901000e-02 3.1101000e-02 3.8501000e-02
         vertex 9.9901000e-02 1.0000000e-06 9.9901000e-02
         vertex 9.9901000e-02 3.1101000e-02 6.1501000e-02
      endloop
   endfacet
   facet normal -1.0000000e+00 0.0000000e+00 0.0000000e+00
      outer loop
         vertex 9.9901000e-02 3.1101000e-02 6.1501000e-02
         vertex 9.9901000e-02 1.0000000e-06 9.9901000e-02
         vertex 9.9901000e-02 8.0001000e-02 9.9901000e-02
      endloop
   endfacet
   facet normal -1.0000000e+00 0.0000000e+00 -0.0000000e+00
      outer loop
         vertex 9.9901000e-02 3.1101000e-02 6.1501000e-02
         vertex 9.9901000e-02 8.0001000e-02 9.9901000e-02
         vertex 9.9901000e-02 4.9101000e-02 6.1501000e-02
      endloop
   endfacet
   facet normal -1.0000000e+00 2.2119353e-14 -1.7799167e-14
      outer loop
         vertex 9.9901000e-02 4.9101000e-02 6.1501000e-02
         vertex 9.9901000e-02 8.0001000e-02 9.9901000e-02
         vertex 9.9901000e-02 8.0001000e-02 1.0100000e-04
      endloop
   endfacet
   facet normal -1.0000000e+00 5.7487276e-14 -2.2719849e-27
      outer loop
         vertex 9.9901000e-02 4.9101000e-02 6.1501000e-02
         vertex 9.9901000e-02 8.0001000e-02 1.0100000e-04
         vertex 9.9901000e-02 4.9101000e-02 3.8501000e-02
      endloop
   endfacet
   facet normal -1.0000000e+00 -4.5651673e-27 -4.6259293e-14
      outer loop
         vertex 9.9901000e-02 4.9101000e-02 3.8501000e-02
         vertex 9.9901000e-02 8.0001000e-02 1.0100000e-04
         vertex 9.9901000e-02 3.1101000e-02 3.8501000e-02
      endloop
   endfacet
   facet normal -1.0000000e+00 -0.0000000e+00 -4.6259293e-14
      outer loop
         vertex 9.9901000e-02 3.1101000e-02 3.8501000e-02
         vertex 9.9901000e-02 8.0001000e-02 1.0100000e-04
         vertex 9.9901000e-02 1.0000000e-06 1.0100000e-04
      endloop
   endfacet
   facet normal -1.0000000e+00 -3.5140477e-14 -1.7799167e-14
      outer loop
         vertex 9.9901000e-02 3.1101000e-02 3.8501000e-02
         vertex 9.9901000e-02 1.0000000e-06 1.0100000e-04
         vertex 9.9901000e-02 1.0000000e-06 9.9901000e-02
      endloop
   endfacet
   facet normal 4.3107357e-15 -1.0000000e+00 -4.3107357e-15
      outer loop
         vertex 9.9901000e-02 8.0001000e-02 1.0100000e-04
         vertex 9.9901000e-02 8.0001000e-02 9.9901000e-02
         vertex 1.0100000e-04 8.0001000e-02 1.0100000e-04
      endloop
   endfacet
   facet normal 4.4497917e-15 -1.0000000e+00 -4.4497917e-15
      outer loop
         vertex 1.0100000e-04 8.0001000e-02 1.0100000e-04
         vertex 9.9901000e-02 8.0001000e-02 9.9901000e-02
         vertex 1.0100000e-04 8.0001000e-02 9.9901000e-02
      endloop
   endfacet
   facet normal 1.7763568e-14 0.0000000e+00 -1.0000000e+00
      outer loop
         vertex 1.0000100e-01 1.0000000e-06 1.0000000e-06
         vertex 1.0000000e-06 1.0000000e-06 1.0000000e-06
         vertex 1.0000100e-01 8.0101000e-02 1.0000000e-06
      endloop
   endfacet
   facet normal 1.7763568e-14 0.0000000e+00 -1.0000000e+00
      outer loop
         vertex 1.0000100e-01 8.0101000e-02 1.0000000e-06
         vertex 1.0000000e-06 1.0000000e-06 1.0000000e-06
         vertex 1.0000000e-06 8.0101000e-02 1.0000000e-06
      endloop
   endfacet
   facet normal 1.0000000e+00 5.7117583e-14 -2.2918378e-27
      outer loop
         vertex 1.0000100e-01 3.1101000e-02 6.1501000e-02
         vertex 1.0000100e-01 1.0000000e-06 1.0000000e-06
         vertex 1.0000100e-01 3.1101000e-02 3.8501000e-02
      endloop
   endfacet
   facet normal 1.0000000e+00 -0.0000000e+00 4.6139139e-14
      outer loop
         vertex 1.0000100e-01 3.1101000e-02 3.8501000e-02
         vertex 1.0000100e-01 1.0000000e-06 1.0000000e-06
         vertex 1.0000100e-01 8.0101000e-02 1.0000000e-06
      endloop
   endfacet
   facet normal 1.0000000e+00 4.5533097e-27 4.6139139e-14
      outer loop
         vertex 1.0000100e-01 3.1101000e-02 3.8501000e-02
         vertex 1.0000100e-01 8.0101000e-02 1.0000000e-06
         vertex 1.0000100e-01 4.9101000e-02 3.8501000e-02
      endloop
   endfacet
   facet normal 1.0000000e+00 -3.5240628e-14 1.7763568e-14
      outer loop
         vertex 1.0000100e-01 4.9101000e-02 3.8501000e-02
         vertex 1.0000100e-01 8.0101000e-02 1.0000000e-06
         vertex 1.0000100e-01 8.0101000e-02 1.0000100e-01
      endloop
   endfacet
   facet normal 1.0000000e+00 0.0000000e+00 -0.0000000e+00
      outer loop
         vertex 1.0000100e-01 4.9101000e-02 3.8501000e-02
         vertex 1.0000100e-01 8.0101000e-02 1.0000100e-01
         vertex 1.0000100e-01 4.9101000e-02 6.1501000e-02
      endloop
   endfacet
   facet normal 1.0000000e+00 0.0000000e+00 -0.0000000e+00
      outer loop
         vertex 1.0000100e-01 4.9101000e-02 6.1501000e-02
         vertex 1.0000100e-01 8.0101000e-02 1.0000100e-01
         vertex 1.0000100e-01 3.1101000e-02 6.1501000e-02
      endloop
   endfacet
   facet normal 1.0000000e+00 0.0000000e+00 -0.0000000e+00
      outer loop
         vertex 1.0000100e-01 3.1101000e-02 6.1501000e-02
         vertex 1.0000100e-01 8.0101000e-02 1.0000100e-01
         vertex 1.0000100e-01 1.0000000e-06 1.0000100e-01
      endloop
   endfacet
   facet normal 1.0000000e+00 2.1990270e-14 1.7763568e-14
      outer loop
         vertex 1.0000100e-01 3.1101000e-02 6.1501000e-02
         vertex 1.0000100e-01 1.0000000e-06 1.0000100e-01
         vertex 1.0000100e-01 1.0000000e-06 1.0000000e-06
      endloop
   endfacet
   facet normal -1.7763568e-14 0.0000000e+00 1.0000000e+00
      outer loop
         vertex 1.0000000e-06 1.0000000e-06 1.0000100e-01
         vertex 1.0000100e-01 1.0000000e-06 1.0000100e-01
         vertex 1.0000000e-06 8.0101000e-02 1.0000100e-01
      endloop
   endfacet
   facet normal -1.7763568e-14 0.0000000e+00 1.0000000e+00
      outer loop
         vertex 1.0000000e-06 8.0101000e-02 1.0000100e-01
         vertex 1.0000100e-01 1.0000000e-06 1.0000100e-01
         vertex 1.0000100e-01 8.0101000e-02 1.0000100e-01
      endloop
   endfacet
   facet normal -1.0000000e+00 0.0000000e+00 0.0000000e+00
      outer loop
         vertex 1.0000000e-06 3.1101000e-02 3.8501000e-02
         vertex 1.0000000e-06 1.0000000e-06 1.0000100e-01
         vertex 1.0000000e-06 3.1101000e-02 6.1501000e-02
      endloop
   endfacet
   facet normal -1.0000000e+00 0.0000000e+00 0.0000000e+00
      outer loop
         vertex 1.0000000e-06 3.1101000e-02 6.1501000e-02
         vertex 1.0000000e-06 1.0000000e-06 1.0000100e-01
         vertex 1.0000000e-06 8.0101000e-02 1.0000100e-01
      endloop
   endfacet
   facet normal -1.0000000e+00 0.0000000e+00 -0.0000000e+00
      outer loop
         vertex 1.0000000e-06 3.1101000e-02 6.1501000e-02
         vertex 1.0000000e-06 8.0101000e-02 1.0000100e-01
         vertex 1.0000000e-06 4.9101000e-02 6.1501000e-02
      endloop
   endfacet
   facet normal -1.0000000e+00 2.2061206e-14 -1.7763568e-14
      outer loop
         vertex 1.0000000e-06 4.9101000e-02 6.1501000e-02
         vertex 1.0000000e-06 8.0101000e-02 1.0000100e-01
         vertex 1.0000000e-06 8.0101000e-02 1.0000000e-06
      endloop
   endfacet
   facet normal -1.0000000e+00 5.7301834e-14 -2.2646559e-27
      outer loop
         vertex 1.0000000e-06 4.9101000e-02 6.1501000e-02
         vertex 1.0000000e-06 8.0101000e-02 1.0000000e-06
         vertex 1.0000000e-06 4.9101000e-02 3.8501000e-02
      endloop
   endfacet
   facet normal -1.0000000e+00 -4.5533097e-27 -4.6139139e-14
      outer loop
         vertex 1.0000000e-06 4.9101000e-02 3.8501000e-02
         vertex 1.0000000e-06 8.0101000e-02 1.0000000e-06
         vertex 1.0000000e-06 3.1101000e-02 3.8501000e-02
      endloop
   endfacet
   facet normal -1.0000000e+00 -0.0000000e+00 -4.6139139e-14
      outer loop
         vertex 1.0000000e-06 3.1101000e-02 3.8501000e-02
         vertex 1.0000000e-06 8.0101000e-02 1.0000000e-06
         vertex 1.0000000e-06 1.0000000e-06 1.0000000e-06
      endloop
   endfacet
   facet normal -1.0000000e+00 -3.5127314e-14 -1.7763568e-14
      outer loop
         vertex 1.0000000e-06 3.1101000e-02 3.8501000e-02
         vertex 1.0000000e-06 1.0000000e-06 1.0000000e-06
         vertex 1.0000000e-06 1.0000000e-06 1.0000100e-01
      endloop
   endfacet
   facet normal -4.3021142e-15 1.0000000e+00 4.4408921e-15
      outer loop
         vertex 1.0000000e-06 8.0101000e-02 1.0000000e-06
         vertex 1.0000000e-06 8.0101000e-02 1.0000100e-01
         vertex 1.0000100e-01 8.0101000e-02 1.0000000e-06
      endloop
   endfacet
   facet normal -4.4408921e-15 1.0000000e+00 4.3021142e-15
      outer loop
         vertex 1.0000100e-01 8.0101000e-02 1.0000000e-06
         vertex 1.0000000e-06 8.0101000e-02 1.0000100e-01
         vertex 1.0000100e-01 8.0101000e-02 1.0000100e-01
      endloop
   endfacet
   facet normal 4.3715027e-15 -1.0000000e+00 -4.3719949e-15
      outer loop
         vertex 9.9901000e-02 1.0000000e-06 9.9901000e-02
         vertex 1.0000000e-06 1.0000000e-06 1.0000100e-01
         vertex 1.0100000e-04 1.0000000e-06 9.9901000e-02
      endloop
   endfacet
   facet normal 4.3719944e-15 -1.0000000e+00 -4.3715032e-15
      outer loop
         vertex 1.0100000e-04 1.0000000e-06 9.9901000e-02
         vertex 1.0000000e-06 1.0000000e-06 1.0000100e-01
         vertex 1.0000000e-06 1.0000000e-06 1.0000000e-06
      endloop
   endfacet
   facet normal 4.3715027e-15 -1.0000000e+00 -4.3715027e-15
      outer loop
         vertex 1.0100000e-04 1.0000000e-06 9.9901000e-02
         vertex 1.0000000e-06 1.0000000e-06 1.0000000e-06
         vertex 1.0100000e-04 1.0000000e-06 1.0100000e-04
      endloop
   endfacet
   facet normal 4.3715048e-15 -1.0000000e+00 -4.3715048e-15
      outer loop
         vertex 1.0100000e-04 1.0000000e-06 1.0100000e-04
         vertex 1.0000000e-06 1.0000000e-06 1.0000000e-06
         vertex 9.9901000e-02 1.0000000e-06 1.0100000e-04
      endloop
   endfacet
   facet normal 4.3715032e-15 -1.0000000e+00 -4.3698769e-15
      outer loop
         vertex 9.9901000e-02 1.0000000e-06 1.0100000e-04
         vertex 1.0000000e-06 1.0000000e-06 1.0000000e-06
         vertex 1.0000100e-01 1.0000000e-06 1.0000000e-06
      endloop
   endfacet
   facet normal 4.3698769e-15 -1.0000000e+00 -4.3715032e-15
      outer loop
         vertex 9.9901000e-02 1.0000000e-06 1.0100000e-04
         vertex 1.0000100e-01 1.0000000e-06 1.0000000e-06
         vertex 1.0000100e-01 1.0000000e-06 1.0000100e-01
      endloop
   endfacet
   facet normal 4.3715032e-15 -1.0000000e+00 -4.3715032e-15
      outer loop
         vertex 1.0000000e-06 1.0000000e-06 1.0000100e-01
         vertex 9.9901000e-02 1.0000000e-06 9.9901000e-02
         vertex 1.0000100e-01 1.0000000e-06 1.0000100e-01
      endloop
   endfacet
   facet normal 4.3715048e-15 -1.0000000e+00 -4.3715048e-15
      outer loop
         vertex 1.0000100e-01 1.0000000e-06 1.0000100e-01
         vertex 9.9901000e-02 1.0000000e-06 9.9901000e-02
         vertex 9.9901000e-02 1.0000000e-06 1.0100000e-04
      endloop
   endfacet
endsolid AutoCAD
